/* XPM */
static char *f2574c0cba1a464a902c7ca3858d3174bZMV1hVhPRJBhK7Y[] = {
/* columns rows colors chars-per-pixel */
"64 64 224 2 ",
"   c #B56C06",
".  c #B86E04",
"X  c #B46B0C",
"o  c #BA6D0C",
"O  c #B97507",
"+  c #BD750B",
"@  c #BD7715",
"#  c #C1710F",
"$  c #C27D0E",
"%  c #C47B14",
"&  c #C67916",
"*  c #1CAC35",
"=  c #1AA939",
"-  c #1DAC3B",
";  c #2DAC2F",
":  c #34AD2D",
">  c #3AAD2C",
",  c #3BB22D",
"<  c #25A634",
"1  c #23AB35",
"2  c #2AAC35",
"3  c #25A53A",
"4  c #23AB3A",
"5  c #2CAC3A",
"6  c #32AD34",
"7  c #3AAF33",
"8  c #32AD3B",
"9  c #2EB134",
"0  c #21B038",
"q  c #2EB23C",
"w  c #34B133",
"e  c #3CB234",
"r  c #33B23B",
"t  c #3DB53B",
"y  c #6DBC1F",
"u  c #43AE2D",
"i  c #4BB927",
"p  c #43B32D",
"a  c #4CB32D",
"s  c #53B526",
"d  c #5CB524",
"f  c #57B927",
"g  c #54B52C",
"h  c #5CB52B",
"j  c #54B92C",
"k  c #5AB92B",
"l  c #43B432",
"z  c #4BB332",
"x  c #43B43D",
"c  c #48B739",
"v  c #53B632",
"b  c #54B832",
"n  c #5DBA34",
"m  c #5ABA3B",
"M  c #62B525",
"N  c #64BA23",
"B  c #6CBB25",
"V  c #62B62B",
"C  c #69B42B",
"Z  c #63BA2C",
"A  c #6CBB2A",
"S  c #76B725",
"D  c #74BC24",
"F  c #7BBD24",
"G  c #73BB2A",
"H  c #7BBD2B",
"J  c #65BB32",
"K  c #66BA37",
"L  c #6BBB33",
"P  c #72BD32",
"I  c #79BE33",
"U  c #7EC31D",
"Y  c #75C123",
"T  c #7DC123",
"R  c #75C12A",
"E  c #7BC129",
"W  c #75C134",
"Q  c #7AC435",
"!  c #1BAE41",
"~  c #24AD42",
"^  c #2BAD42",
"/  c #34AE46",
"(  c #24B145",
")  c #2AB146",
"_  c #32B143",
"`  c #38B347",
"'  c #45B345",
"]  c #4CB942",
"[  c #66B843",
"{  c #BA850F",
"}  c #BD8211",
"|  c #8FBD14",
" . c #85BE1D",
".. c #8CBE1D",
"X. c #97BD1A",
"o. c #92BE1D",
"O. c #83BD23",
"+. c #8DBE22",
"@. c #83BD2A",
"#. c #8CBE29",
"$. c #93BE22",
"%. c #98BE26",
"&. c #93BD35",
"*. c #AEBB33",
"=. c #C98515",
"-. c #C28B11",
";. c #CC831B",
":. c #D3861C",
">. c #D3891D",
",. c #DB8E1E",
"<. c #D5901C",
"1. c #DB911D",
"2. c #E0941F",
"3. c #D48626",
"4. c #D68B22",
"5. c #DC8D22",
"6. c #DC9323",
"7. c #D89525",
"8. c #DF9B25",
"9. c #DF9130",
"0. c #E08D24",
"q. c #E29424",
"w. c #E29B25",
"e. c #E5962C",
"r. c #E9962D",
"t. c #E49A2B",
"y. c #E99D2A",
"u. c #E69632",
"i. c #E99531",
"p. c #DDA629",
"a. c #D7B93C",
"s. c #D9BA3D",
"d. c #E4A32B",
"f. c #EDA42E",
"g. c #E5AB2D",
"h. c #ECAA2E",
"j. c #F1A62F",
"k. c #F1A92E",
"l. c #EBB32E",
"z. c #E8B92D",
"x. c #E4A432",
"c. c #ECA633",
"v. c #E4AC31",
"b. c #EDAB32",
"n. c #EEA739",
"m. c #F1A732",
"M. c #F0AA32",
"N. c #F0AD39",
"B. c #E6B331",
"V. c #EDB232",
"C. c #EDBC33",
"Z. c #ECBB37",
"A. c #EBB23A",
"S. c #F1B135",
"D. c #F2BB36",
"F. c #F3B53C",
"G. c #F4BC3B",
"H. c #F8BD3E",
"J. c #8DC417",
"K. c #84C31E",
"L. c #8DC31D",
"P. c #8DCA1C",
"I. c #93C317",
"U. c #9BC214",
"Y. c #92C21D",
"T. c #99C31C",
"R. c #84C223",
"E. c #8DC322",
"W. c #8CC822",
"Q. c #85C229",
"!. c #8DC32A",
"~. c #8BC829",
"^. c #91C221",
"/. c #92C322",
"(. c #92C125",
"). c #9AC324",
"_. c #98C825",
"`. c #94C52B",
"'. c #99C62D",
"]. c #9AC62C",
"[. c #95C82C",
"{. c #99C82C",
"}. c #85C132",
"|. c #8DC430",
" X c #8EC934",
".X c #89C43B",
"XX c #95C632",
"oX c #9CC532",
"OX c #94C932",
"+X c #9BC830",
"@X c #A3C328",
"#X c #B6C52C",
"$X c #B9C42D",
"%X c #BCC531",
"&X c #C4C231",
"*X c #CAC336",
"=X c #D3C034",
"-X c #D5C33A",
";X c #D8C53A",
":X c #EEC334",
">X c #EDCA34",
",X c #E3C43B",
"<X c #EBC538",
"1X c #F1C536",
"2X c #F0C935",
"3X c #F3C53B",
"4X c #F8C43E",
"5X c #F5CA3E",
"6X c #F9C93F",
"7X c #DEB941",
"8X c #EAB242",
"9X c #EDB749",
"0X c #F7BB43",
"qX c #D5C448",
"wX c #E5C84B",
"eX c #F5C541",
"rX c #FAC543",
"tX c #F6C942",
"yX c #F9C843",
"uX c #F3C74E",
"iX c #FAC549",
"pX c #E3C752",
"aX c #EAC452",
"sX c #F2C950",
/* pixels */
"4 * g R./.Y.Y.E.E./.T.Y.L.E.E.o.....E.L.#.$...+.$.(.].].].`.`.].].`.(.+.+.(.].{.`.(.E.Y.Y.E.E.J.E.V 5 = = 7 T Y.Y./.L.E./.Y.Y.Y.",
"l l g Z B B D R.E.o.o.L.L.E.E.o...+.#.+.#.$.$.$.o.(.].].OXXX].[./.$.#.L.@.L I R W !.E.Y.I.L.E.L.E.S g u l g F /.T.T.Y.L.E./.Y./.",
"T O.V w 9 2 z F L.Y.Y.L...L.L.E.E.+.E.E.+.E.+.....E.!.].OXXX].[./.$.+.Y.G ' x e x @.E.L.Y.Y.L.E.E.R.@.F R.R.E.E.E.E.E.L././.E./.",
").).V 4 - 4 e F E.~./.E.+.L.L.L.+.+./.Y._./.E.E.E.(.#.].`.].].[.`.).!.T.W ` / ( 8 H o.E.E.E.L.Y.Y.L.E.Y.Y.Y.Y.Y.E.E.R.E././.E./.",
"/.E.h 4 - 4 l O.(. X].(.(.+...+./.(.`.].].].(.].`.).%.`.`.].].`.].].`.).Q ` ) ~ 5 D Y.E.E.E.Y.Y.Y.Y.L.E.E./././././././././././.",
"J.J.N , w 6 a O.].].].].(.(.E.E.(.].].XXOXoX].oX}.}.Q.P Q.].].`.].].`.].Q c e 6 u F E.L.L.L.L.Y.Y...$././././.Y.Y.Y.Y.Y././././.",
"Y.T. .D D A F E.`.].].].`.`.(.(.`.].].{.`.].`..Xm c c z G `.].XX].{.].). XG D S S E.E.L.L...L.Y.Y./././.Y.Y.Y.Y.J.L././././././.",
"(.(./././.E.E./.!.`.(.].].].].].].].].(.!.).(..X` ^ q r L E.#.(.(./.(.).].E.o.%.$.Y././.E.E././.Y.Y.Y./././././.L.L.E.E././././.",
"Y.L.E.)./.L.L./.#.(._.].].].].XX].].).#.O.$.Y.}.t _ _ ) P Y...%.o...!.$.E.L...#.E.L.E./././././././.L./././.Y.Y.Y.Y.L.L././././.",
"Y.J.J././.J.Y.Y.#.#./.(.!.!.!.`.].`.#.....o...H x ` ` ` L L...@.#.Y.E.....L...(./.L.L.Y././.Y.Y././.E.J.Y.L.K.K.L.L./.Y.L.L.Y.L.",
"E.E.Y.Y.E.E.Y.E.R...+.A m n n I ].).+...| +...T C J [ K n g s a A X.L.+.E.L.L.E.E././.E.E.Y.Y.Y././.E.E._.R.Z a z h F Y.E.E.Y.Y.",
"E.E.L./.$.+.o.o.+.o.O.z ~ ( _ K ].]./.#.+.+.| | .._.+X|.] ~ 3 = a X.L.E.E.L.L.E.E./././././.Y././.E.E.E._.F > - ! 5 N J.R./.T.Y.",
"Y.Y.L.E.(.E.L...L.L.O.u - ~ _ J {.XX`.(.$.$.......`.].].] 4 < = z X.P.L.L.L.E.E.E././././././././.E.E.L.T.D 7 2 4 5 Z Y.L.Y.Y.Y.",
"L.L.E.E./.E.......L.F p - 3 8 J [.].].`.`.!.#.O.R.`.oX@Xm qXeX4XeXeXpX(.(./.E.E././././././././.E.E.E.L._.R e 1 1 8 Z E././.E./.",
"A A F +.$.$.$.$.$.$.#.Z u u z P ].].`.{.`.!.#.+.%X*X7X9X8Xb.b.h.h.D.tXsXsXwX&X#XY.Y.E./././.E./.E.E./.Y./.F g p l z f N A A F (.",
"< < g O.o.E.!.(./.`.`.!.Q.+.+.R.`.].XX_.(.`.`.aXA.b.b.b.b.b.h.h.V.rXtXtX5X5X5X5XwX/.Y./././.E.E././.Y.T./.R.R.R.E.F g 2 4 9 j E.",
"3 3 g R./.`.`.`.[.[.].{.].].(.R.+./.XX].`.-XG.h.b.c.m.n.n.7.7.7.x.x.x.iXiXiX5X5X5X5X;X/.E.E.E.E./.Y.Y.E.E./.)./.T.O.z 1 2 2 g Y.",
"- 1 s +.(.`.].].].].`.).].XX].(.+.o.(.].,Xh.h.c.m.m.>.% & o X X X X X & % 7.iXtXtX4Xl.,XL././.Y.Y.Y.Y.E.E.o.Y.J.L.E l 1 0 1 j E.",
"q : M !.`.`.].].`.`.`.].].].].`.`.+.$.s.h.h.k.c.u.X o # & 5.5.5.r.r.u.3.& @ X 8X0Xb.b.h.-X#.E.Y.L./.Y.Y.Y.E.L.Y.E.E d 7 q p M R.",
"F D O.`.].].`.(.(.(.(.).].].].].`.+.s.b.b.b.n.%   ;.>.5.,.,.5.r.r.r.r.i.u.9.3.  % n.m.b.V.qXE.T.Y.(.E.E.E.E./.Y.Y.R.E G E F K.E.",
"I.E.(.].].].`.+.+.+.+.E.(.].].].].,Xh.b.c.c.o % 4.,.1.,.,.,.q.r.r.r.r.e.e.r.r.i.& o c.b.rXtX;X/.Y./.(.E.E.E./.Y.Y.Y././.T.Y.Y.L.",
"..+.(.`.`.].`.....+...+.E.(.].].-Xb.b.b.c.% % 5.,.1.1.,.,.q.r.r.r.e.b.V.b.e.r.r.0.% @ iXeXtX5X;XL././.Y./.E.E.Y.Y.Y.T.L.E./././.",
"+.o.(.`.`.`.`.+.......+.+.E.`.`.G.b.b.n.O 4.5.,.<.b.b.V.h.r.r.r.w.V.3X3X2XS.r.e.5.5.4.O iX5X5X5XL./.Y.Y./././././.Y.Y.E.E./././.",
"..+.(.].].].].(.+.+...+...#.].aXh.b.c.% % ,.,.,.b.V.V.3X3Xw.r.r.d.3X>X>X2XV.q.5.5.5.4.& } eXtX5XwXY.I.Y.Y././.E.E.E./././.Y.J.J.",
" .+.!.].].].oX).#.+.+...+.#.%XV.h.b.t.& 4.,.1.1.b.V.:X>X>XG.t.e.g.3X>X>X2Xl.h.g.8.6.e.i.;.A.tX6XB.$XY.L./.Y.Y./.E.E./././.E.L.L.",
"$.o.$.`.].].].`.(.+.+.+.+.(.*Xb.m.m.+ 5.1.,.1.6.h.C.>X>X>X3Xd.t.3X>X>X:Xz.V.V.V.H.1.e.i.u.+ iXS.h.&XE.E././.Y././.L.Y.Y.I./.E.E.",
"/.+.$.(./.].]._.`.`.E.).`.oXs.h.m.>.:.5.,.w.f.M.l.2X>X>X>X2XV.8.3X>X>XC.l.S.B.z.4Xw.e.i.i.4.7.b.h.a./.L./.%.$.Y.Y.E.E.E./././.L.",
"].(.S h V L Q R.`.oX].].].oX9Xh.b.$ 5.5.,.w.S.l.1X>X>X>X2X>XC.8.2X>X2Xl.b.V.l.>X4Xw.r.i.i.r.& m.h.9X(.L.Y.Y.Y.J.Y.L.B d h V G E.",
"`.XXL 5 = - ' &.oX].].].].oX8Xh.b.6.,.,.,.d.V.:X>X>X>X>X>X>X3Xp.2X2Xl.l.b.V.1X3Xp.t.e.r.r.r.e.m.h.8X/./.(.(.E.E.(.#.g * = 4 k L.",
"`.].L 8 3 4 x |.OX X[.].`.pXb.b.6.:.5.5.5.y.V.3X2X>X>X2X>X>X>X2X2XC.V.k.M.F.0XO >.r.i.i.i.5.:.6.f.b.aXY.L.Y.J.L._.R.e * 2 1 g E.",
"]._.K / ~ - e F E.E.T.(.(.eXh.b.8.>.5.5.5.1.$ p.Z.3X3X3X3X>X>X2XC.l.V.d.8.=.% u.i.i.i.i.e.5.4.q.k.b.rXY.L.L.J.L.Y. .l - 4 2 k /.",
"[._.I ] x r z F o.o.X./.+.4Xb.m.y.,.,.,.,.,.e.4.=.} { { -.:X>X2XV.V.b.-.=.8.t.e.e.i.i.i.5.5.5.y.f.h.4X/.(.(.E.R./.#.n r w e g A ",
"(.].`.W._.@XT.| ..#.#.....eXb.m.y.5.,.,.5.q.r.u.u.t.w.d.z.>X3XB.V.b.V.C.2X3X4XD.d.w.e.5.5.,.,.y.k.h.eXJ.I.Y.Y.L.I.Y.R.E.T.R.b 4 ",
"#.`.XXXX`.oX].R.Q.#.+...L.eXh.m.y.5.,.,.5.e.r.e.w.V.C.3X2X2XD.V.M.V.B.>X>X>X>X3X4Xh.q.,.,.,.,.y.k.h.eXL./.$.(./.Y.Y._././.E.h 1 ",
"+.+.(.oX].).].`.E.L.L.E.E.pXb.k.f.5.,.,.r.e.e.b.4X2X>X>X>X2Xl.V.-.V.3X>X>X>X>X2X3XV.d.,.,.,.,.y.k.b.aXY././.L.L.E.L.L.E.Y.Y.k 0 ",
"..+.E.[.].].].%.%.%.$.L.E.(.8Xh.m.q.5.q.r.e.8.4X2X>X>X>X:Xz.l.V.<.B.>X>X>X>X>X:XB.V.y.,.,.,.6.m.h.8X#.L.R.R.E.L.E.Y.T.!.~.Q.k 2 ",
"+.E././.[.[.`.#.E.E...o.Y.).9Xh.m.q.5.r.r.e.w.4X2X>X>X>XC.l.V.M.<.B.>X>X>X>X>X1XV.M.y.,.,.,.6.m.k.9Xc 6 6 a F T.Y./././.T.Y.L.T ",
"(.`.].+XOXOX`.L.J.J.L.Y.o./.a.h.b.g.e.r.r.r.t.4X2X>X>X:XV.V.l.S.1.p.<X>X>X>X:Xv.6.y.=.,.,.,.e.m.h.a.6 1 1 7 F Y.L.E.E.E.E.E.L.E.",
"].].).@X).$.$.o.o.o.E.E.Y.Y.&Xb.eXrXt.r.i.i.t.7.4X3X3XV.b.V.l.V.q.7.eX>X>X:XV.c.>.5.,.,.,.1.m.b.h.*.4 - - e E _.E.E.E.L.Y.E.(.E.",
"].].OX X|.!.(./...o.E.R.E...$XB.tXtX0Xe.i.i.e.5.+ + 8.V.S.l.D.d.r.i.$ >X>XC.V.c.5.5.,.,.,.f.b.b.V.&.2 * * w Y Y.Y././.J.J.E.(.E.",
"].`.`./.Y.L.D g p e g F R.J.Y.wX5XtXeXx.e.r.r.i.u.u.c.b.V.D.v.8.i.i.e.p.Z.A.N.=.5.5.,.,.2.j.h.h.aXO.D y B D R.E./.T.T.T.I.Y.E.L.",
"`.(.!.+.o.E.A > 4 - : A ~.Y.Y./.tX5X6XiXw.e.r.r.u.e.% b.b.G.<.u.i.i.i.t.O . . 5.5.,.1.1.j.k.h.G.J.E.E.E.(.(._././.L.L.E././.E.J.",
"E.#.+...L./.G : 1 4 8 A I.L.L.Y.;X5X6XtXiXc.e.r.e.6.6.% & ;.u.r.i.r.r.r.5.5.,.,.,.,.1.b.k.k.b.=XE.E.R.R./.Y.Y.L.E./.T.Y.L._./.E.",
"+.+.$.L.E.+.A : * - 8 A U.T.)././.,X6X5X5XrXw.w.5.5.,.<.9.i.i.e.u.i.e.q.5.,.,.,.,.1.j.f.b.h.,XT./.Y./.o.Y.Y.Y.L.E.E.E.L.L././.E.",
"+.+./.E.E.$.F k g v v f N Z Z F Y.E.;X5X5X4XH.w.,.5.,.5.r.r.i.u.i.i.e.5.5.,.,.,.q.m.m.h.b.-XE.E././.T.Y.J.E.E./.Y.L.R.E.E./.Y.L.",
"E.E.E.R.L.Y.Y.R.L.Y.T p 4 ^ 5 h Y.Y.(.;X5XD.h.c.f.,.1.q.e.r.i.i.r.r.5.,.,.,.<.f.f.m.k.h.-X/.E.E.L.E./.I.J.K.E./.T.J.Y./.E././.Y.",
"E.L.E.E.Y.Y.L.L.Y.T.R.l = 4 4 b Y./././.,XD.h.b.h.S.b.d.x.e.r.r.r.q.,.6.1.w.c.c.m.h.h.,XE.T.Y./.I.E.E.T.Y.L.E.Y.J.J.T.Y.L.L.Y.Y.",
"E.L.Y.Y.Y.E.E.E.(.`.E p * 1 0 j L.E.Y.X.T.=XH.h.G.tXrXrXiXF.F.m.f.y.y.h.h.h.b.b.h.G.=XY./.Y./._.Y./.Y./.Y.Y.Y.J.L.L./._._.Y.E./.",
"E.E.E.Y.Y.E.L.Y././.R.V e 7 p A Y./.T.Y.Y.E.E.aXeXtX5X5XtXyXH.b.j.m.f.h.h.h.b.A.aX/.E.J./.T G P G O./.L.L./.Y.J.L.E.F G H D R.(.",
"E.E.E.L.Y.E.L.Y.)./.L.R.E F @.E.Y.(.L.E.T.E.W.X.$X%XqXsXuXyXV.h.h.h.b.8X9Xs.&X$X/./.E.Y.(.j w 9 w M Q.P.L.$.(.Y.Y.Q.s 9 q > N E.",
"L.E.E.+.E.`./.J.Y.E.L.Y./././././.E.E.Y.o.Y.I.Y.Y.L.T.(.`.pX4X4X4XrXpX%.).).o.(.Q.E./.Y.T.a 4 4 * j R.Y./.E.E.L.T.O.a 1 - 1 g (.",
"Y.Y././.T.Y.Y.L.Y.Y.Y.Y./.E././.Y.L.L./.L./.L.E./.o.T.T.R.!./.Y._.$.T.Y.P.(.L.T.J.I.$.E.Y.z ~ - * j R./.E.Y.T./.T.R.l - - 4 g E.",
"L.L.E.R.R.K.U E.E.E.Y.L.Y././.E.E.L.Y.L.L.L.L.E.E.L./.T.L.E./.I.R.F R.U T (.E./.Y./.(.E.E.g 6 6 6 h R.E.K.Y.T./.L.K.g 2 6 7 k R.",
"L.L.A l e p d R._.E.E.L.Y.T./.E.E././.Y.Y.Y.Y.Y./.E.E.E.Y.E.(.I.B e p , g +.E.E.Y.E.L.Y./.F D A A O./.E.E./.E.E.Y.J.F B D G @./.",
"Y.L.V 1 - * u @./.J.L.(.Y.Y.Y.Y.Y.Y.Y././.R.E.Y.T.T.T.E.Y.E./.T.Z 1 1 - t +.E.I.T.E.Y.Y.E.Y.I.E.R.L./.(./.Y.R.E.Y././.W.E.E.Y.I.",
"Y.Y.V 2 - - e H /.I.Y.(.Y.J.Y.$.%./.L.Y.E.E.E.Y.Y.Y.E.E.Y.L.L.T.Z 4 4 = e E.E.I.$.!./.Y.R.Y.Y.E.E.Y./.E./.Y.J.Y./.Y.L.E.E.E.E.L.",
"Y.Y.Z 8 4 1 p G E.L.L.L.P.J.Y.(.).(.(.Y...R.E.J.Y.E.~.R././.Y.Y.Z 2 4 3 l R.R.J.Q.W.L.T.L.Y.Y.E.E.Y.I.E.E.I.Y.E.!./.I.Y.E././.E.",
"Y.L.G h k f k h k j h @.E.L.L./.E.L.E.E d v v V R.E.Y./.).E.Y._.E s k V g f b d h U Y././.E.Y./.E.Y.Y.E./.O.V v v n O.Y.E.L.T./.",
"/.E.L.E.L.L.G e 1 4 8 A E.E.L.Y.L.J.L.A 2 3 ~ 6 R Y.I.Y./.E.Y.T.E.U W.T.B 2 ~ 2 6 Y E.+./.E.Y.Y./././.L.Y.D e 4 4 6 A (.E.L.Y.Y.",
"/./.Y./.L.Y.G w * 3 5 N I.(.E.Y.Y.Y.E.D 4 < ~ 2 E /.L.L.Y./././.L.L.W.T.F 1 0 4 ; Y (.o._.Y.L./.L././.Y.T.D e - * 6 A /.E.E./.Y.",
"/./.Y./.E.Y.G w * 4 8 B I.(.E.T.$.Y.E.D 2 < 4 9 E /.Y.L.L./././.Y.L.L.T.F 2 - 4 6 Y /././.L././.L./././.).G e - * w Z E.E.E././.",
"/.E.Y./.E.Y.@.b p z v D Y.(.(.T.E.Y.E.F c p p i K.%.(.L.L././././.Y.L.Y.R.a l l a T E./.L././.L.E././././.F v l p g D E.E././.E.",
"/.L.E.E.L.I.T.R.K.L.R.R.I.E./.Y.L.L./.E.E R.R.K.I.o.E.Y.Y.Y././././.Y.L./.T K.E.O.Y.R.E.L././.L.L./.L.L.I.Y.R.T T R.E.T././././.",
"/./././.Y.Y.T./.E./.E.L.I.Y.Y.Y.L.Y.Y.I.E.Y./.Y.T./.R.Y./.Y././././.Y.L./.Y.I.Y.Y.Y.E.E.L.Y./.Y.Y.Y.L.E.E.L.L.Y.Y.E././././././."
};
