/* XPM */
static char *_b2e1947b054447aefa5bba60bdff484i6OSSy6LUTb91pSD[] = {
/* columns rows colors chars-per-pixel */
"64 64 235 2 ",
"   c #05070A",
".  c #060A0D",
"X  c #0B0B0D",
"o  c #070E10",
"O  c #0C0E11",
"+  c #0E1114",
"@  c #0F151B",
"#  c #111416",
"$  c #121619",
"%  c #15191B",
"&  c #181C1E",
"*  c #151A22",
"=  c #1A1D24",
"-  c #1B1E29",
";  c #1B2329",
":  c #1C232C",
">  c #1C2734",
",  c #1E2932",
"<  c #1E2938",
"1  c #20272E",
"2  c #222A34",
"3  c #262B35",
"4  c #232E3A",
"5  c #22313C",
"6  c #6C3439",
"7  c #704437",
"8  c #303945",
"9  c #433E44",
"0  c #3E4756",
"q  c #45444A",
"w  c #494A57",
"e  c #554E5A",
"r  c #4B525E",
"t  c #4B565C",
"y  c #5A5150",
"u  c #67494B",
"i  c #794A46",
"p  c #6D4F53",
"a  c #6D5254",
"s  c #6E575B",
"d  c #75555A",
"f  c #5C6648",
"g  c #636D4B",
"h  c #4D4E63",
"j  c #4D5361",
"k  c #4A5565",
"l  c #535364",
"z  c #565A66",
"x  c #555C70",
"c  c #695D65",
"v  c #725D62",
"b  c #5A656D",
"n  c #586576",
"m  c #5D6A76",
"M  c #5D6C7A",
"N  c #5E717B",
"B  c #69646D",
"V  c #776266",
"C  c #7A646C",
"Z  c #6C6974",
"A  c #796874",
"S  c #62727D",
"D  c #69757E",
"F  c #757179",
"G  c #933516",
"H  c #A13B18",
"J  c #8D3A24",
"K  c #8A3C38",
"L  c #A0451D",
"P  c #8B443A",
"I  c #954C33",
"U  c #BC4A2A",
"Y  c #A64B39",
"T  c #B84A35",
"R  c #A5533A",
"E  c #B3563D",
"W  c #C84627",
"Q  c #DA552B",
"!  c #C64E33",
"~  c #C75738",
"^  c #D55A36",
"/  c #C8633B",
"(  c #D5683C",
")  c #DD723C",
"_  c #E76C2C",
"`  c #E36C34",
"'  c #E0743D",
"]  c #864747",
"[  c #984A43",
"{  c #88574A",
"}  c #9C5745",
"|  c #8B5C55",
" . c #885758",
".. c #975A54",
"X. c #A14840",
"o. c #AA5744",
"O. c #B45B46",
"+. c #8A6159",
"@. c #97665A",
"#. c #AB644F",
"$. c #B76747",
"%. c #BC735C",
"&. c #8E5C61",
"*. c #8C6C6D",
"=. c #B07A70",
"-. c #C66847",
";. c #CA714F",
":. c #D77243",
">. c #E27D4A",
",. c #C37A67",
"<. c #1DAD35",
"1. c #16AB3D",
"2. c #1DAC3B",
"3. c #2FAC2E",
"4. c #24AC35",
"5. c #2BAD35",
"6. c #23AC3B",
"7. c #29A938",
"8. c #33AD34",
"9. c #38AE34",
"0. c #2BB139",
"q. c #36B136",
"w. c #3DB233",
"e. c #34B13C",
"r. c #6FBB1E",
"t. c #4CAF2E",
"y. c #49B227",
"u. c #44B32D",
"i. c #4BB42D",
"p. c #59B726",
"a. c #54B52C",
"s. c #5AB52B",
"d. c #54B92C",
"f. c #5BB92C",
"g. c #44B432",
"h. c #49B336",
"j. c #54B533",
"k. c #58B734",
"l. c #64BA26",
"z. c #6CBB25",
"x. c #65B628",
"c. c #64BB2A",
"v. c #6ABB2B",
"b. c #74BC25",
"n. c #7BBD23",
"m. c #74BD29",
"M. c #7ABB28",
"N. c #70AE37",
"B. c #65BA35",
"V. c #7CC124",
"C. c #7DC12B",
"Z. c #74C132",
"A. c #1BAE41",
"S. c #26AC42",
"D. c #32AF45",
"F. c #28B146",
"G. c #38B444",
"H. c #5CAC46",
"J. c #4CB643",
"K. c #69AE46",
"L. c #7AA263",
"P. c #87BD1A",
"I. c #8CBD1E",
"U. c #95BE1A",
"Y. c #92BE1D",
"T. c #83BE23",
"R. c #8CBE21",
"E. c #87BD2A",
"W. c #92BE23",
"Q. c #96BE27",
"!. c #89B536",
"~. c #92BF30",
"^. c #8DC417",
"/. c #84C21D",
"(. c #8EC31D",
"). c #96C319",
"_. c #92C31D",
"`. c #84C224",
"'. c #8DC322",
"]. c #8AC825",
"[. c #85C32B",
"{. c #8CC32A",
"}. c #90C220",
"|. c #91C322",
" X c #99C424",
".X c #96C825",
"XX c #95C52B",
"oX c #9AC62C",
"OX c #95C82C",
"+X c #99C82C",
"@X c #85C433",
"#X c #94C532",
"$X c #99C534",
"%X c #95C832",
"&X c #A1C328",
"*X c #8BB643",
"=X c #92B850",
"-X c #98B86C",
";X c #98A97E",
":X c #9BC447",
">X c #9DC067",
",X c #5F6E83",
"<X c #647682",
"1X c #697887",
"2X c #6B7A86",
"3X c #6C7E8C",
"4X c #7B7684",
"5X c #71798F",
"6X c #8A7985",
"7X c #71828E",
"8X c #74878F",
"9X c #758592",
"0X c #778996",
"qX c #7B8997",
"wX c #7B8D9A",
"eX c #7F8EA4",
"rX c #848D98",
"tX c #958E9A",
"yX c #81929D",
"uX c #8B949D",
"iX c #94AC8F",
"pX c #A6B897",
"aX c #8496A2",
"sX c #8B9AA5",
"dX c #929AA6",
"fX c #919FB2",
"gX c #98A6A9",
"hX c #96AEB2",
"jX c #99A9B5",
"kX c #A7B3AB",
"lX c #A8B5BB",
"zX c #A8B9C5",
"xX c #AABDC6",
"cX c #B6BEC2",
"vX c #B2C0C7",
/* pixels */
"5.0.<.z.`._.).|.{.'._.|.`.'.P.I.^.^.(.(.W.Y.I.I.R.W.XXOXXXXXXXOX+X+XXX'.R.R.|.XX.X|.'.'.(.).Y.W.{.v.8.4.3.w.m.|.(.|._._.U.U._.).",
"<.2.<.x.'._.).|.{.'._.).(._.`.|.Y.I.R.(.'.W.W.R.W.|.XXOX+XOXOXOX+XOXXXR.R.|.XX+X+X.X|._.).`.'.^._.z.5.2.1.8.m.).).|.'.].'._._.'.",
"d.d.a.j.p.p.a.M.`._.Q.Y.(.(.(.'.(.R.'.R.R.W.W.W.Y.W.XX+X%X#XOXXX|.W.R.(.`.B.B.c.B.M.'.(.^.)._.'.'.n.x.s.a.c.M.{..X).)._.'.|.|.|.",
"(.(.I.j.4.4.2.k.`._._.I.I.I.(.'.'.R.R.(.(.`.`.`.I.R.'.XXOXOX+XXX|.W.R.Y.E.J.G.e.e.v.R.'.'.|.(.(.'.].`.`.(.(._.(.'.].`.].|.|.|.|.",
"Q. X Xt.A.7.S.s.(.].#X|.|.R.'.(.R.R.|. X X.X'.'.'.|.W. X.XoXoXXXXXXXOX X[.J.D.F.D.x.Y.|.{.R.'._._._.(._.)._._._.|.'.'.'.|.|.|.|.",
"'.'.].u.1.2.2.a.W.OXOX+X X|.R.I.R.|..XOX#X#XXXoX+XoX&XXXXX+XoXXXXXXXOX+X@XJ.F.S.7.B.'.'.`.(.(._._.(.(.'.'.'.|.|. X_._._.|.|.|.|.",
"(.^.^.l.u.u.w.z.Q.+XoX+XXX|.'.'.|.XX+X+X#X#X+X$X@XZ.Z.v.m.XX+X%XOX+XXXXX@Xk.i.u.t.z.'.'.(.(.(._._.W.|.|.|._._._._._.(._.|.|.|.|.",
"Y.W.W.P.I.`.T.(.{.{.XX+X+XXXXXXXXX+X+XoX.XoX+X#XB.G.G.q.k.E.XX#X+X+X+XXXXX[.T.R.T.'._.'.(.(.(._._._. X_.(.(.(.(.(._.|.|.|.|.|.|.",
"R.'.'.|. X(.`.(.{.XX.X.X+X+XOXOXOX+XOXXX[.Q. X#Xk.e.e.F.j.T.I.R.W.I.'.Q.XX'.(.W.W.'.|.W.|.|.|.|._._.(.|.|.|.|.|.|.'.(.'.|.|.|.|.",
"U.).^.(.Q.(.(.).I.~. X.X+X+XOX#XOXOXXXQ.T.W.Y.XXk.D.D.F.k.'.Y.Q.W.I.'.R.I./.(.|.|.^.(._.|..X|.'.'.|.'.(._._.)._._._._._.|.|.|.|.",
"|.|.).(.|.`.(._.`.`.W.W.[.[.[.[.OXXXE.I.P.Y.pXiXhXvXzXzXxXxXjXxXvXlXkX>XR.(.(.'.|.(.(.(.|._._._.|.|.'._.).'.`.n.T.R.'.|.(.(._.(.",
"'.{.'._.W.R.Y.Y.R.R.U.M.h.G.G.J.@XoX X#X*XgXaXfXsXxXxXxXzXvXxXxXxXxXzXjXsXiX~.'.'.|.|.'.'.|._._.|.|.'.{.|.T.a.0.0.w.r._.{.|. X_.",
"_._.Y.(.|.|.(.Y.R.`.Y.b.8.S.F.h.[.+X$XkX4XF x wXyXsXlXzXzXzXzXzXlXjXjXfXZ Z ;X-X'.|.|.|.|.|.|.|.|.'.'.'._.n.w.4.6.0.c.(.`.(.)._.",
").).(.(.|.'.'.I.I./._.z.7.6.S.w.[.%XgX4Xd u x 3XaX7XgXjXjXjXjXjXjXjXyXfXA 6 d tX=X|.|.|.|.|.|.|.|.'.'.(._.V.w.4.4.7.B..X_._.|.'.",
"'.'.'.`.W.W.I.Y.Y.I.W.m.8.4.7.h.E.-XdXd K ] l 3XyXt w t t t z z b D aXsXC 7 K C dX:X|.|.|.|.|.|.'.'.'._.|.C.u.4.4.e.f./.R.R.'.|.",
"y.u.w.b.R.Y.R.|. X|. X{.v.z.x.m.*XkXtX] [  .l k * .   .   . . . . o : uXC ] [ i tXlX-X|.|.|.|.'.|.|._._._.T.z.l.z.v.a.u.g.u.c.`.",
"4.4.7.l.`.|.{.XX.X.XOXOXXXXXW.R.;XlXd P X. .l > .     X #       X   . r *.] [ ] 6XlXlXXX|.'.'.'.|._._._.'.|.|.'._.R.t.7.7.5.s._.",
"6.6.4.l.R..XXXOX+XXX%X XoX%XXX=XjXdXd Y Y &.l > .   # O X       X X . r C K T P p jXjXpX'.'.'.'.|._._.{.'.U.).(._.`.h.6.4.4.d._.",
"A.1.4.z.{.XXXX+X+X+XOX+X+X+X+XgXjX4X] T T &.l > o # # X X X X   X X O r C K T Y  .dXjXjX%X|.|._.(.|._._.|.(.(.(.'.C.i.4.1.5.s.`.",
"s.a.p.n.XXOXXXXXXXXX|.XXXX+X:XdXgXA [ ! U  .l < O X X X X X X X O X o r C P U T i 4XsXaXL.m.'._.).|.|._._.'.'._._.`.x.a.d.l.b.'.",
"U.(.T.'.OXOX+X XR.W.R.'.XXOX-XsXdXA } ! U  .h > o X X X X X X O & X O r C P U T ] c 9XwXsXK.`._._.|.|.'.'.'.|._.).|.[.`.(.(.(.'.",
"U.I.R.XXXXOX+X|.I.R.R.R.'.XXiXsXrXv R ! !  .h < o X O O O O # % + X O j C P U ! ..c rXwXwXH.(.'.'.|.|.|.'.'.'._.)._.|.|._.|.|.|.",
"`.I.R.XXXXXX+X|.I.I.I.R.R.E.yXsXrXu E Q !  .h < O X O O O O & # + + + j C P W W } B qXwXwXH.(.].'._.|._.|.'.|.|._._._.'.`.|.|. X",
"I.I.Y.XXXXXX+XXXR.R.I.R.R.*XwX0XZ u E Q ~ &.h < + O O O O # + O + + + j C P ! W } c 9XwXqXK.(.'.'._._._._.|.|.{.'.'.|.|.'._._._.",
"P.I.'.XXOXOX+XOXW.R.R.R.R.8XwXqXF  .~ Q ~  .h < # # + O + + + + + + + l *.[ ! W o.v 2X0XqX*X_.'.'._.).)._.|._.'.'.(.|.|.|.'.(.^.",
"P.R.I.'.OXOXOX+XXXR.R.I.R.qX0X0XF  .! Q ~  .h < # + + + + + + + + + + l A [ ~ W O.s <X0X0X*X'._._.|.|.'.|._._._.|.(._._._.'.'.'.",
"|.|.I.Q..XXX$X+XXXXX'.'.|.qX0X9XF  .~ Q !  .h < # # $ + + + + + + + * j C } ^ W O.a S wXyX*X'._._.|.|.'.'. XW.|.|.'.'.|._..X|.(.",
"OXXXR.M.m.M.@X'.XXOXoXXXXXqX9X9XZ | ~ Q ! | l < @ = + + + + + + # # @ r C [ ^ W O.d 2X0XsX-X|.|.|.|.|.(.(. X_.(.(.(.n.m.m.m.`.(.",
"OXOXXXs.9.8.G.B.#X$X&X+X+XsXqX7XZ | ~ Q ~  .e 4 = # # # # + + + # # @ r C } ^ W o.a 2XaXsXpX|.|.|.|.|._.|.|._.(.|.R.s.9.8.w.c.(.",
"OXXX+Xj.6.4.2.B.#X%XOX+X+XsXsXyXF | ~ Q ~ { r 4 $ # # # # $ $ # # # @ j C } ^ Q o.a 2XaXaXlX|.|.|.|.|._.(.|._.'..X`.g.<.4.4.s.'.",
"+XXX+Xk.S.7.1.k.{.{.|..X.XsXaXaXF  .~ Q ~ ] w < $ # $ $ $ # % $ $ $ $ k C } ^ ^ R a 1X0XaXlX|.|.|.|.|._.(.(.^.(.|.(.g.<.4.4.s.|.",
"XX+X.XB.G.G.6.s.R.'.U.|.|.yXyXyXF | ~ Q ~ i w < $ $ $ # $ ; % $ # # @ r V } ^ ^ O.p D 0XyXlX|.|.|.|.|._.|.|.(.`.|.R.j.0.5.8.s.C.",
"R.XX+XC.Z.C.m.P.I.R.R.I.I.yXwXeXF | ~ Q ~ i w 4 % % % % ; & % % % % * r V I ^ Q R a S 9XwXcX|.|.|.|.|.(._.|._.(._.(.m.v.b.x.j.g.",
"R.W.oX#XOX+X$X.X`.E.E.I.I.wXwXwXZ | -.^ ~ i w 2 % % % % & % % % % % * r V I ~ ^ R a m 7X9XcX|.|.|._.|.(.(.|.|.(._._.'.|. X].d.4.",
"R.R.W.#X$X X+XXX{.`.(.I.(.wXwX7XZ | J G J i w 4 % % % & % % % % % % * r V 7 G G J a M 9X7XgX_._.(.|.|.|.|.|.|.'.(._._.|._.(.s.4.",
"I.I.R.XX+X+XoXoXXXW.W.Y.(.9X2XS c *.%.;.%.+.w 4 * % % % % % % % % = ; j B +.@.#.@.a M 7X2XuX'.'._.|.R.(.`.`.(.(.'._._.'.{.`.a.4.",
"I.R.R.|.XXOXOXXXW.|.R.I._.2X<X<Xb 4X6X6XF Z 0 2 = * % % % & & & - ; * k M l e e e l n 1X2XrX_.'._.n.a.i.i.f.V._._._.|.|.|.'.b.l.",
"W.|.XX+X+X%XXX|.I.(.(.(._.2X<XM n 5XqX5XeX,X0 8 ; * = * * % * * 1 * * h M n n h h k n 1X2XrX(.'. Xm.e.6.4.9.b._._.|.'.|._._.(.].",
"XXXX+X&XoXXX|. XY.(.(.(._.<X<X<Xn 4X6X6X4X2Xk 5 = = = - - - - - = = * h B z 6Xu u e b S <XsX'.[. Xm.5.2.<.8.m..X'.'.'.(.'.'.|.'.",
"+XOX+X#X%XXXW. XI.I._.`.'.2XN S c  .Y R { *.w 4 - - - - - - - - = - - j v u =.E $.i z m S gX|.'.|.z.5.<.<.3.m..X_.|.|.(.(.'.|.'.",
"+X+XXXXX.X_.'.b.x.s.a.z.`.<X<X<Xc @.O.-.,.+.q 4 ; - - - ; - - - - - - j d @.%.;.%.i z <X2X-X'.'._.n.x.p.d.p.V._.|. X_._.)._.|.(.",
"+XOXXXXXY.U.].p.8.4.2.y.C.<X<XS z +.J H R { q 5 ; - - ; 2 - - - - - ; j C { L L R u m 9X9X=X_.|.(.(.`.(.`.'.|.|.'._.(.'.|._.'.(.",
"|.|.'.R.I._.|.s.3.6.2.g.`.<X,Xn z +./ ` :.{ q 4 ; ; ; 2 ; - - - ; : : z V } :.` O.u b 7X7X=X_._.(.'.'.'.|. X).(.'.'._._.(. X|.(.",
"R.R.R.Y.`._.W.s.4.4.2.g.I.wX7X2XB @./ _ >.{ q 4 ; : 2 ; - ; ; ; : ; : x V } ) ` $.u m 0X7X*X_._.|.|.'.'.|._._.(.'.'.|._.(. X|.].",
"R.R.R.|.`.(.R.x.u.g.g.j.z.9X3X3XZ @.( _ >.{ q 5 ; ; ; ; ; ; ; ; ; : : z v } ) ` $.a m 7X7X!.|.'._._._.).).'.'.|._.(.'.'.'.|._.(.",
"'.R.R.'.]._._.`.V.P./.c.w.9X7X7XZ @.:._ >.| q 5 ; ; ; ; ; ; ; ; 2 1 : z s } ) ` $.a b 2X7X!.'.].(.'.|.).^./.]. X_._.|.|.'.|._._.",
"'.'.(.'.'._._.(.(.).).m.4.9X3X7XB +.:._ >.{ q 5 : : : : : : : 3 , : : l s } ) ` ;.u b <X3X!._.'.).'.'._._.(.'._._.)._._.(.(.|._.",
"'.'.'._._._.'.].'.|.|.v.5.7X3X3XB +.:._ >.| w 5 : : : : : : 3 2 , : : j s } ' ` $.u k n M !._..X_._._._._._._.(.(.(.|._._.(.|.|.",
"'.'.'.|._.|.'.(.|.W.|.n.u.7X3X3XB +.:.` >.@.q 5 : : : : : : , : : : , r s } ) ` E u j m M N.M.M.M.T.|.(.(.|._.(.(.'.`.M.E.n.`.|.",
"(.'.'.'.Y.|.'.(.).Q.|.(.b.2X<XM z +.$.) >.{ q 5 , 1 1 1 : : 1 , , : , w v } :.( R u z m S K.w.q.w.p.`.].(.|.|._._.`.p.w.q.y.z.'.",
"|.(.'.'.'.XXXX(.).|.'.^._.S S n y @./ H L { 8 5 1 1 2 , : , , , , 2 , w s P H U $.7 z M M K.6.2.<.u.`.(.(.|.'.(.).T.u.<.2.4.s.|.",
"|.(.(.|.|. X_.(.(._._._.|.N M M e +.;.-.;...9 5 , 2 4 2 2 2 2 2 2 2 4 r a } -.-.$.7 j n M N.6.2.<.u.`..X'.(._._._.`.h.2.2.6.a.'.",
"|.(.(.'.`.`././.'.'.|.(.(.S N M l y 7 I $.{ 9 5 , 3 3 2 2 2 2 2 2 2 3 w a P O.P 7 y j n M N.8.5.5.a.`.|.].).).W.'./.a.5.5.8.f.'.",
"'.(.(.x.u.h.y.z.|.'.'.(.(._..X_.N.f f f q q 8 K._.'.{.'._.XXpXpXvXvXcXuXz 9 q y f g {._._.T.z.c.c.n.'.'.]._.|.{.(.^.b.l.z.z.n.|.",
"'.(.(.i.<.2.4.s.W._.^.|.|._._._._._._._.|.'.'.|._._._.'._._.|..Xm.9.4.<.e.m.(.^.).'.(._.|.|.).'.'.(.|.|. X_.`.]._.|.|.|.'.'._._.",
"'.(._.a.4.2.<.j.[._.^. X|.^.(._.Q. X_._._.{.{._.Y.).|.].).).(._.m.9.4.2.e.m.'.(.W.XX|._.'.'.).(.'._._.'.|.).(._. X_.(.'.].'.'.(.",
"|._._.j.7.2.4.i.`.(.^.(.(.^.^. XXXW.XX_.(.`.'.(.).'.{.'.'.|._._.m.w.7.6.9.z.].(.`.'.(._._.(._.(.'._.).'.'.)._.'.{.|.).(.'.|.|.{.",
"|._.(.v.s.d.a.s.s.f.d.z.[.'.(.|.|.'._.'.z.s.j.s.m.]._.|. X|._._.`.f.a.s.a.d.d.p.l.V.(.|.|.'.|.|.'.|._.'.|.`.x.k.j.B.T._.'.(._.|.",
"|.|.(.(.'.(.'.B.5.4.6.t.`.|.'._.(.^.).`.u.5.6.4.f.`.).). X|.(._.'././._.n.u.6.4.8.l.`.|.|.|._._.|.|.|.(._.M.g.4.6.8.v.|.'.(._._.",
"|.|.|._.|.^._.B.<.4.6.w./..X'._.Y._.|.(.g.4.S.2.f.'._.(.(._.|.|.(.(.(._.T.w.2.6.5.l.'.W.|.|.(.|.'.|.|._.).M.w.2.<.8.v.|.'.'.|.|.",
"|.|.|._.|.(.|.B.4.4.S.g.P._.'.|. X_.'.R.g.4.6.<.d.`._._._._.|.|.|.(.(._.T.g.6.6.5.l.'.|.|.|.'.|.'.|.|. X XM.w.2.<.3.c.'.'.'.|.|.",
"|.|.(._.|.(. Xm.i.i.h.f.(._.'. X|._.'.R.f.u.u.u.z.|. X|.(._.|.|.|._._._.`.f.g.g.i.b.'.|._.(.|.'.(.|.|.|. XT.k.g.u.a.b.'.'.|.|.'.",
"|.|.(.'.'.(.).|.V./.`.V.(._.|._.(.^.|._.[.`.`./.^.).'.'.(._.|.|.|.|._.(.'.`./.`.`.(.'.'.(.(.|.(.(.|.(.(.)._.`.`.`.`.'._.|.|.|.|.",
"|.|._.|.|.).). X'.|.|.]._._._._.(.)._.).'.'.|.|._._.'.'.|.|.|.|.|.|._.(.|.|.)._.|._.'.'.(.(.|._._._._.`.].(.(._._.'.|.|.|.|.|.|."
};
