/* XPM */
static const char *xpm_[] = {
/* columns rows colors chars-per-pixel */
"64 64 236 2 ",
"   c #1DAA1E",
".  c #15AB2B",
"X  c #1BAA2C",
"o  c #17A52B",
"O  c #19B32F",
"+  c #0CAC3C",
"@  c #0EA934",
"#  c #1BA636",
"$  c #15AC35",
"%  c #1BAB34",
"&  c #16A63C",
"*  c #1EA53B",
"=  c #15AB3B",
"-  c #1DAC3C",
";  c #17A736",
":  c #0DB134",
">  c #1EB33D",
",  c #1DB137",
"<  c #24A62B",
"1  c #29A72D",
"2  c #25AC2B",
"3  c #2BAC2C",
"4  c #32AB2D",
"5  c #3BAE2D",
"6  c #33A826",
"7  c #2FB02F",
"8  c #27B32C",
"9  c #33B12F",
"0  c #37B327",
"q  c #20A535",
"w  c #2BA433",
"e  c #23AC34",
"r  c #2CAC35",
"t  c #25A53B",
"y  c #2BA43A",
"u  c #23AC3B",
"i  c #2AAC3C",
"p  c #33AD33",
"a  c #3CAD33",
"s  c #33AC3B",
"d  c #3BAD3C",
"f  c #31A63B",
"g  c #22B133",
"h  c #29B033",
"j  c #24B13B",
"k  c #2BB139",
"l  c #32B333",
"z  c #3AB434",
"x  c #3BB63C",
"c  c #36B33B",
"v  c #5CAE1C",
"b  c #6DBE1D",
"n  c #6EB21F",
"m  c #76B715",
"M  c #7BBC1B",
"N  c #76BA1C",
"B  c #44AA26",
"V  c #43AD2C",
"C  c #49AF2F",
"Z  c #40A420",
"A  c #5DAF29",
"S  c #43B220",
"D  c #44B32E",
"F  c #4CB42C",
"G  c #4CB622",
"H  c #54B426",
"J  c #5CB523",
"K  c #5DBA25",
"L  c #53B22B",
"P  c #5AB72C",
"I  c #52BA2B",
"U  c #5BBB29",
"Y  c #52BB21",
"T  c #42AD34",
"R  c #49AF3F",
"E  c #44AE3F",
"W  c #53AE37",
"Q  c #44B333",
"!  c #4CB432",
"~  c #46B43A",
"^  c #48B539",
"/  c #40B83C",
"(  c #55B532",
")  c #5BB932",
"_  c #52B33B",
"`  c #5ABA3C",
"'  c #63B524",
"]  c #6DB523",
"[  c #64BB25",
"{  c #6CBB26",
"}  c #63B62C",
"|  c #6BB42C",
" . c #63BA2C",
".. c #6CBC2A",
"X. c #73B422",
"o. c #74BD24",
"O. c #7CBC24",
"+. c #78B728",
"@. c #74BE2A",
"#. c #7BBC2A",
"$. c #62B632",
"%. c #69B730",
"&. c #63B932",
"*. c #69BB33",
"=. c #69BD3B",
"-. c #71BC34",
";. c #7CB938",
":. c #6CC21F",
">. c #76C21C",
",. c #7DC31D",
"<. c #7FC117",
"1. c #5CC133",
"2. c #6DC12D",
"3. c #6EC224",
"4. c #74C125",
"5. c #7DC323",
"6. c #74C22B",
"7. c #7CC22B",
"8. c #70C826",
"9. c #66C232",
"0. c #6DC237",
"q. c #75C333",
"w. c #72C43B",
"e. c #0EAB43",
"r. c #0BAA4B",
"t. c #14A643",
"y. c #14AC43",
"u. c #1BAB43",
"i. c #1AAA4A",
"p. c #0EB144",
"a. c #0BB14B",
"s. c #14B045",
"d. c #1FB34A",
"f. c #1FB247",
"g. c #1BA750",
"h. c #23AB43",
"j. c #2AAC43",
"k. c #20A748",
"l. c #2AAA4A",
"z. c #34AF47",
"x. c #23B244",
"c. c #2BB145",
"v. c #25B149",
"b. c #35B343",
"n. c #39B548",
"m. c #31AE50",
"M. c #42AF42",
"N. c #4CB544",
"B. c #4AB846",
"V. c #54B543",
"C. c #42AC50",
"Z. c #99BE0D",
"A. c #90BC0D",
"S. c #8CBD15",
"D. c #84BD1C",
"F. c #8CBD1D",
"G. c #81B71B",
"H. c #94BD14",
"J. c #99BD15",
"K. c #93BE1C",
"L. c #9ABD1D",
"P. c #96B71B",
"I. c #A1BE0C",
"U. c #84BD24",
"Y. c #8CBE22",
"T. c #8BB72D",
"R. c #84BC2A",
"E. c #8CBE2B",
"W. c #8DB725",
"Q. c #93BE23",
"!. c #9BBD23",
"~. c #93BE29",
"^. c #9ABD2B",
"/. c #87BD35",
"(. c #93BE30",
"). c #A3BF23",
"_. c #A1BC2F",
"`. c #8DC30F",
"'. c #91C40D",
"]. c #85C415",
"[. c #8DC315",
"{. c #8CC915",
"}. c #84C41D",
"|. c #8DC31D",
" X c #8DC91C",
".X c #87CD1F",
"XX c #94C315",
"oX c #9BC314",
"OX c #93C913",
"+X c #93C31C",
"@X c #9BC31C",
"#X c #92CA1C",
"$X c #9CC918",
"%X c #86D11E",
"&X c #A1C30E",
"*X c #A2C512",
"=X c #A2C31B",
"-X c #A9C41C",
";X c #85C423",
":X c #8DC322",
">X c #85C923",
",X c #8CC923",
"<X c #84C32A",
"1X c #8CC32A",
"2X c #84CC2C",
"3X c #8BC92B",
"4X c #91C525",
"5X c #92C322",
"6X c #9AC323",
"7X c #94C923",
"8X c #9AC924",
"9X c #97C62C",
"0X c #94C42B",
"qX c #99C728",
"wX c #98C72D",
"eX c #9AC52C",
"rX c #92C829",
"tX c #96C82C",
"yX c #9AC92D",
"uX c #86C432",
"iX c #8DC432",
"pX c #8CCB34",
"aX c #8ACB3A",
"sX c #85C638",
"dX c #95C533",
"fX c #9BC533",
"gX c #94C932",
"hX c #9BC932",
"jX c #92C63C",
"kX c #9BC738",
"lX c #98C939",
"zX c #A3C323",
"xX c #A8C827",
"cX c #A4C429",
"vX c #A6C728",
"bX c #A1C332",
/* pixels */
"r k % O.:X@X+X5X:X:X+X5X:XY.}.S.[.[.}.|.Q.K.F.|.Y.Q.tX9X9X9X9XeXwXeX0XY.Y.Q.6XqX4X5XY.:X+XH.Q.5X3X! # 4 e L qX|.:X+X+XL.L.+X+X}.",
"; - ; O.4X@X@X4X:X:X+X@X|.5X;XQ.K.Y.1XF.1XQ.F.Y.Q.5XrXeXeX9X9XeXeX9X5XF.Y.5XwXyXqX5X:X@X+X<X5X{.Q.C t.= e.! zXH.5X5X>X2X+X}.L.1X",
"[  .} ! S I D U.>XL.!.F.F.|.|.:X:XY.:XY.Y.Q.~.K.P.5XgXyXpXjXeXrX5XQ.Y.+X6.N.$.I ` 6X>X[.XX@X+X:XU.+.X.J  .@.<X4X@X@XJ.5X:X5X5X5X",
"+X@X@XE = - e.| :X:X+XF.F.|.:X:X:XY.Y.|.|.:X:X}.F.:X1XqXtXeXyXrX4XQ.U.@X-.m.b.j b.W.Q.5X:XK.F.|.:X,X;X$X@X@X+X|.:X>X>X5X:X5X5X5X",
"!.6X5Xp s.s u.] XXsXjX5X5XY.F.F.Y.Q.5X6X8X7X:X5X4X0XQ.qXqXqXqXrXtXwXgX=Xq.m.m.v.s Y.XX1X:XY.+X+X+X+X#X+X+X+X+X+X5X5X5X5X5X5X:X+X",
":X:X>X5 p.# t.| ).gXeXqX0XQ.F.F.5X4XqXdXjXfX9XcXeXcX-XuX0XqXeX1X0XqXtXqXw.j.u - r U.5X:X|.|.+X+X|.F.F.1X1X5X5X5X+X+XK.5X5X:X|.+X",
"[.XXXXJ F F Q O.eXtXqXwX9X5X:X:X6XwXyXtXiXfX9XkX0.=.9.( #.9XhXgXwXqX9X9XsX( H L H <X:X|.}.}.|.+XK.5X6X@X@X+X+X+X[.|.|.5X5X5X5X5X",
"Q.Q.!.}.@X@X5XOX3X3XtXqXqX9X0X0XeXwXeXzX4XcX4XjXn.c.x.s | :X0XgXqXqXwX6XgX:XL.!.Q.@XF.:X|.|.|.+X+X+X6X}.|.|.|.|.|.5X5X5X5X5X5X5X",
":X:X;X6X^.,.O.:XiX0XOX9XwXtX9X9XgXeX9X1XR.^.+XdX~ s c v.*.K.F.Q.K.S.Y.^.0X|.|.~.:X|.Q.Q.5X5X5X5X+X|.|.0X0X9X4X5X:X|.|.+X5X5X5X5X",
"J.XX].|.^.'.+XXXF./.6XqXwXtX9X9X9X9X9XL.U.P.S.(.x l.c.d.-.@XK.eX5X|.1XS.D.].|.9X:X].[.+X6X6X:X:X:X:X:X|.|.+X+X+X+X+X@X+X5X5X5X5X",
":X4XK.+X:X1X|.5X<X;XJ.Y.q.<X<XuXhX0XR.S.A.Q.F.6.W ^ C.N.*.M M { #.@XS.Y.:XY.Y.:X:X5X5X:X:X+X+X+X5X5X:XXX4X<Xo.o.O.Y.1XXX}.@X:X[.",
"1X1X1XK.Q.Y.K.L.Y.Y.L.| j.f.d.N.fXcXoXR.D.W.H.XXS.@XhX3XN.l.* # H L.:X:X:X:XY.:X:X5X5X:X5X5X+X5X5X:X:X1X8X' e y.y.5 '.1XuX6X5XXX",
"@X@XK.|.5X:X|.K.Y.}.@X' - j.c._ 8XgXtX6XQ.K.S.S.S.4XwXhXB.i w = Q L.OX|.|.|.:X:X:X5X5X5X+X5X5X5X5X:X:X|.$XH % l u d #X}.}.H.K.[.",
"+X+X|.}.5X:X|.F.|.}.5XJ & t h.~ 7XgXeX0XtXE.U.U.;X3XiXxX^ ; * u.F J. XF.|.:X:X:X5X5X5X5X+X+X5X5X:X:X:X|.8XP % e * d qX8X8X|.0X}.",
"1X1X1XY.Q.K.F.Q.K.F.Q...y 1 y _ eXwX6XtXtX1XY.Y.5XqXyXzX) r f i Y |.Y.5X:X:X:X|.+X5X5X5X5X5X5X5X:X:X:X+X4X .3 % j Q b F.Y.U.eX:X",
"3 2 e O.K.K.1X0X5X5X9X9X#.G.G.U.qXgXiX8X8X0X5XQ.9X0XdXiX1X}.U.+.>.+X5X|.:X:X:X5X+X+X+X+X5X5X:X:X5X5X+X@XY.<X5.,.;X..6 > k l ;X X",
"t t y 4.|.5X3XtX7XrXgXqXyXyX6X1X;X5XdXgX0XjXgXqXkX4XgX9X5X}.:X5X5X6X].5X5X5X5X5X5X5X5X5X:X:X:X:X5X+X+X}.:XqXqX6X@X+.w i y r Q.@X",
"- u < O.Q.qXtXfXqX9XdXL.yXpXqX0XU.J.1XbX8XdXqX6XfX+XgX|.L.Y.Y.[.F.^. X5X5X5X:X:X5X5X5X:X:X:X:X:X5X+X+X2XK.J.|.}.+X9.s.8 u g :X+X",
"u.= < U.tX9X9XwXeXeX9XeXeXeX9X0XwXY.F.7X6XlX8XgX,X X_.<.Y.0X5X|.K.5X5X+X:X[.+X:XL.:X+X{.+X~.4X+X}.6XXX+X|.|.|.+X1X .Z p.u B 7.+X",
"X.{ n Y.tX9XqX9X5X0X5X0X9XwXwX9XeXY.Q.R.F b.V.d iX7XU.6XL.Q.Q.:X5X:X:X|.:X+X6X:XR.Q z l Q #.|.@X+X6X:X+X:X:X+X+X5X7.....o.N ,X:X",
"Z.+X:X0X9XtXqX5XF.Y.Y.:X0X9XwX0X9X:X5XR.p h.v.l.#.+X<XL.K.|.:X5X5X:X:X:X+X+X6X+X;Xe - $ - O.[.5X+X0X:X|.:X:X5XH.@X4X1X@X@X+X|.|.",
"F.F.Y.9X9XqXwXY.D.Y.F.Y.:X0XtX9XwX4X5XT.e q + i m Z.L.Q.|. X:X5X|.|.5X5XL. X:XOX;Xu - % = U. X3X|.5X+X5X:X:X5X+X@X@X+X|.5X5XQ.6X",
"1XF.K.tX9X9XwXQ.D.F.F.Y.Y.Y.9X0XtX9X5XT.e X j.o U.zX:XiX5XXX|.:X:X|.:X|.@X:XiX+X<Xe t u u.U.[.3X+X5X+X@X5X:X4X5X+X+X5X:X:X6X5X4X",
"F.F.Q.9X9X9XwX0XF.Y.F.Y.F.Y.9X0X9XtX5XF.H J $.H L F Q L O.XX|.:X5X+X:X+X+X:X1X|.5XP | [ ) +X[.3X|.+X+X+X6X5X4X:X:X:X7X5X+X|.[.+X",
"D.D.<X0XtX9XfX9XQ.Y.Y.F.Y.Y.tX0X9XtX:X[.5XzX+XxX4 @ l.o [ @X5X:XL.H.5X5X5X+X:X[.oX+X-X*X5X@X|.5X|.K.+X|.5X+X|.:X:X|.5X5X5X|.[.+X",
":XQ.P.:XtX9XfXfX0XY.Y.F.Y.Y.hX9X9XwX5XQ.5X;XF.L.d - r y.*.@X+X;X+X@X;X:X:X@XL.;X+X>X|.}.;X1X}.@X5X5X;X:X5X+X+X5X5X|.+X|.5X:X:X:X",
"4X5XF.6XqX7XfX8XeXtX:X0X0X9XeXeXeX0X:X].H.;X:XS.T r.% X  .+X+XY.|.|.Q.>X|.XX@X:X:X:X+X5X+X+X5X5X5X5X:X|.6XQ.5X+X5X:X4X+X8X6X:X`.",
"tX9XQ.A } ..w.:X0XdXbX9X9XeXeXeX9X5X:X+XL.5XS.P.' z L ~ -.6X5X1X4X+X5XQ.L.P.5XF.:X5X6X5X5X5X5X5X5X5X:X[.+X+X|.|.XXD.[ } } } 1X X",
"9XtXhXT * # u.;.fXfXcXwXwXwXeX9X5X:X:X#.<X;XF.@X@X5XzX1X+XoX@X|.|.+X[.+X5X:X0X|.+X+X+X5X5X5X5X5X5X5X5X5X1X5X|.:XqX+.i $ $ l :X+X",
"9X0XyXQ h.w = ;.yXaXrXwXqX9X9X5X:X|.|.!.6X+X[.:X].].Y.6X{.[.:X:X:XY.}.[.}.;X:X|.@X+X+X5X+X+X5X5X5X5X5XXX:X+X[.:X6Xo.e.3 u r 5X;X",
"wXqX4XM.k.i + | 5X3X@X4X6X5X5XY.F.F.|.S.].].+X1X|.[.E.~.:X<X1X@X6XeX$X@XL.6XL.K.+X:X:X5X|.|.:X:X5X5X5X+X:X+X[.:X@Xo.e.e t r 5XrX",
"4XqXqX` M.x u ] K.Q.H.5XQ.F.F.:X:X|.|.0X1X+X6X~.@X'.5X6X@X:X+XoXD...4.{ O.4X+X+X5X:X:X5X|.:X5X+X5X5X5X5X1X5X:X1X6XO.x l a D ..6.",
"Y.0XhX>X7XxXeXJ.F.U.E.F.F.Y.Y.|.|.|.|.|.+XK.5XQ.5X+X0XD.@X1X3X7XU - q 2 S 5.|.+X:X:X+X5X5X5X5X5X5X5X5X[.+X+X|.[.@X|.6.oX5X@.i - ",
"Y.0XdXfX9X9XkX,X<XY.Y.F.K.5X:X|.|.|.+X|.5X|.,X}.5X|.+X>X@XF.5X=X} = j.u.Q uX@X+X:X|.@X5X5X5X5X5X5X5X5X|.5X~.:X+X+X+X8X:X7X;Xe g ",
"Y.Y.:X0XhX6XqX9X3X|.}.:X:X:XF.K.5XF.:X+X@X:X0XH.:X,X`.;XqX>X:XcX$.= % u.T :X:X0X@X:XK.|.0X|.@X:X[.0X5X|.6X+X X:X5X[.:X5XoXU.u > ",
"F.F.Y.4XwXeXhXeX~.~.Q.+X|.5X5X5X5X5X:X}.:X|.6XH.+X8X@XL.zX|.[.+XK g h 1 F ;X[.;XD.,X3X5X4X:X1XY.$XY.U.}.;X>X7XF.:X@XL.sX1X6.r 3 ",
"Y.Y.5X5X0XgXtX:XF.4X:XS.+X5X:XY.5X5X|.5X:X|.7X:X:X~.E.].:X1X5XzXQ.U.E.>X[ p 3 j z }.XX+X XXX X:X+XF j r e L +X@X5X5X:XL.$X$X,.:X",
"6X0XqXbXhXgX3X5XS.[.].+X+X+X:X:X:X5X|.+X@XXX+X X[.$X:X8X9X5X+X+X X{.4X=X4.- w e i K.F.6X X+X>X0X=XF = r $ L qX+X:X5X,X5X;XY.|.5X",
"qXqXwXzX6XQ.K.6XP.K.5X:X5XS.5X:X:X5X+X5X5X5X:X1X|.}.}.XX|.H.+X:X:X+XdXJ.o.u.i - t +X5X6X}.5X;X0X@XD = h = ! qX+X:X5X}.+X,X5X5X|.",
"eXeX9XaXaX1X:X0XF.F.+XU.:XS.+X4X:X:X+X;X:X1X5X-X@X6X&X5.:X6X6X1X:XK.F.$X4.# - y.k |.+X:X}.@X|.:X+XD - % $ F 5X@X6X5X:XS.|.~.0X:X",
"wX9X0X6XJ.H.;XJ 5 l h ] 3X|.+X5X:X5X+XOXOX>X>X}.D d.9 d ..}.[.[.7X7X5X;X5.m ,.o.M ,X3X5X4XY.:XY.XXU.M ,.o.,.5XY.5X@X+X@X@XY.|.S.",
"eX9X0X1XF.L.3XB q u.& v pX5XXX6X:X5X+XQ.L.1X6XZ.V r.3 q { 7X5XK.6X:X[.7X0XI.qX1X@X5X5X}.5X|.+X+X{.1X|.5X^.5X@XY.5X X:X1X+X1X:XH.",
"Y.Y.Y.F.;X@X6XF X r h.~ *X}.:X+X}.5X5X:XL.(.6XXXV g.7 $ } 6X@X>XQ.L.|.+X+X5X5X5X5X5X:XQ.+XQ.|.+X:X|.1X1X5XXX[.:X1X5XJ.|.,X!.;X:X",
"Y.Y.Y.+X>XK.Y.Q % - t.( oX@X6X6X5X0X:XOX'.:X:X,.l r.# 3 { +X+X:X5X+X|.5X:X:X+X+X5X5X:X|.|.5X+X+X6X@X5XL.+X5XK.5X:X:X:X|.|.!.}.5X",
"Y.Y.Y.5X;XK.Q.2.U  .&.I G ( ! } XX}.}.L.+X5X@XXXb K b K 5.5X+X:X+X+X:X5X:X:X:X+X5X5X:X5X>X5X:X:X+X5X@XXX}.;X5X!.+X:X1X5X:X6X}.7X",
":X|.:X:X:X@X@X|.+X*X*X .$ k.e.d oX@X5XE.1X:XQ.6X6X5X6X;X:X:X|.+X|.|.5X5X:X:X:X+X5X+X|.eXE.+X:X}.+X;X5X+X}.;X5X6X+X+X!.;X|.5X+X@X",
":X:X|.5X|.+XF.}.|.L.@X .; i $ c +X:XQ.5X:X}.|.1X:X5X0X@X6X|.|.+X+X|.5X5X5X5X5X5X5X+X|.5XY.@X6X@XOX;X|.6X+X|.+X|. X+X@X X[. XK.+X",
":X:X:XK.+X5X1X>X1X1X3X[ # e X z ].;X5XJ.@X+X|.5X7X X|.@X5X|.|.+X5X|.|.5X5X5X5X5X5X5X:X[.5X+X6XqX+X5X+X:X+X@X+X].|.4X5X6X+X:X5X:X",
":X:X|.5X+X4X1X[.@XQ.+XD.! ^ V %.XX6X@X|.+X:X,XQ.0X<X1X+X6X5X[.5X5XQ.[.5X5X5X5X:X5X5X:X[.4X[ &.&.K U.7X}.|.6X|.[.5X<XK =.| [ 0X|.",
"|.:X5X:XS.4X;XXX@X~.:X X:X7X@XqX+X1X|.:XL.:X,XJ.J.:XXX:X0X+X[.:X~.Q.XX+X+X5X5X5X5X5X:XL.0Xl $ = X ] 3X{.K.~.5X@XqX..  a.; 0 1X+X",
"5X|.|.|.:X0X9X|.[.:X1X+X5X:X:X5X5X5X:X5XS.@X+X+X6XF.+X+X;X:XoX[.4X~.3XY.@X^.L.0X7.7X!.|.&Xs x.h $ 4.+X5X:X:X}.+X@X{ r e i 2 eXXX",
"5X|.|.qX@XoX[.[.6X5XL.|.5X5X5X:X|.|.|.5X:X4X:X:X4XK.@XJ.:X1X0X5X6XL.oX#X%X1X}.oX'.XXY.:X@Xs u.% $ ..4X5XF.J.L.Y.@X4.t.= u.g uX X",
":X|.|.@.{ 7.b 5.:X;XQ. X|.5X6X:X:X:X5X|.|.[.[.|.:X>X;X+XXX:X|.XX,.[ 8.N o.!.1X0X5X1X9X|.Y.L a z V o.:X>X}.@X6X<X{.,.a 5 T F Y.|.",
"|.|.|.a $ h.< ..).#X,X5X+X+X6X:X:X5X6X+X6X+X+X@X+X5X5X1X@X5X4X@X .e e $ z K. X X|.}.[.oX6X@X+X,X|.@X8X:X+XY.3X7X@X+X:X+XQ.Y.@X#X",
"5X+X+Xa $ u.X &.^. X].9X5X|.+XL.+X@X[.+X1X<X<X:XK.J.@X>XXX:X:X8X .# e - / 5X:XH.!.5X5X:X<X+X+X3X:X|.1X5X@XF.}.+XQ.Y.qX.X:X}.|. X",
"5X+X+XT - x.j 1.4XOXJ.5X+X[.[.5X^.~.:X+X+X7X7XXXXX:X3X>X+X|.[.+X .- u # Q +X:X[.E.3XY.@X:X+XXX:X+XXX@X1X[.OX@X6X@X+X].:X:X6X:X,X",
"5X+X+XR u # 3 J Y.,X,.D. X{.[.4X9XE.0X@XD.<X<XD.5X0X1X1X0X4X@X6X%.r y j.Q 5.3X{.7. XXX+X:X:X+X1X:X+X+XY.+X+XR./.<X5XoXY.}.L.5X:X",
"5X|.|.5.|.+X<XL r u e | uX:XF.,X X].OXq.B i t p 2.[.Z.@XQ.:X|.@X:X>.>X+XK 9 h.6 T ,.5X1X5X:X@XL.:X@X:X|.6X} r h u T +X0X X@X+X5X",
"5X:X5X@X5X[.L._ : i i.! OX4X1XJ.F.OX6XD.> q h.$ 4.6X5X+X+X5X5X+X|.|.,X@Xo.$ > u 3 }.Q.F.4XS.|.5X|.5X5X].OXP - - % T tX:X:X5X5X5X",
"5X:X5XS.1X{.L.( . 4 i D XX6X1X@XQ.@X:XK.k w j.- 4.+X[.|.|.5X5X5X|.|.:X@Xo.e j u 4 >X0XK.6X|.5X5X|.5X5X=X=X .u , % D 5X:X:X5X5X+X",
"5X5X:X@X9X X0X_ = h.g.I XX5X1X@XQ.+X1XO.k X % O 3.Q.6X|.|.5X5X5X5X|.|.XXo.q = * 4 }.Q.5X|.5X5X|.:X5X|.~.~.( e # e Q <X:X:X5X|.5X",
"5X5X|.;X<X[.oX;X:.}.M 6.XX:X5X@X|.|.5XQ.0.o.O.o.XXL.5X|.|.+X5X5X5X5X|.+X:X..4.#.o.#X:X5X|.5X5X|.:X5X|.+XoX:X@.o.o.5.@X5X5X5X5X:X",
"5X5X|.4X5X@X=XqX:X6X5X;X$X|.+X@X}.|.5XXX>X@X@X+XXXS.5.+X5X+X5X5X5X5X+X}.5X+X$X$X+X+X<X5X|.5X5X|.5X5X|.}.|.5X:X6X5X:X+X5X5X5X5X5X",
"5X5X5X|.|.|.+X|.}.|.:X}.@X+X+X+X|.@X|.@X5X:X:X1X6XeXeX5X5X5X:X:X5X5X5X|.6X:X:X1X1X+X:X|.|.+X6X+X+X+X|.0X5X|.[.XX|.5X4X+X5X5X5X5X"
};

