/* XPM */
static char *_c341e75f8f943a0a5ad65f8a326bef6N6ux0uSbtbYvPtGT[] = {
/* columns rows colors chars-per-pixel */
"64 64 217 2 ",
"   c #010100",
".  c #040902",
"X  c #0B0A04",
"o  c #030109",
"O  c #3B2214",
"+  c #3D3614",
"@  c #1A0A2D",
"#  c #1F0E35",
"$  c #210E37",
"%  c #322721",
"&  c #431F0C",
"*  c #431F11",
"=  c #44200D",
"-  c #432011",
";  c #566C13",
":  c #647A17",
">  c #7D6F2E",
",  c #3B0A71",
"<  c #3F0A7A",
"1  c #400B7C",
"2  c #BC1415",
"3  c #B7181A",
"4  c #F1221E",
"5  c #EB2520",
"6  c #F37B56",
"7  c #1CAC2B",
"8  c #0FAD31",
"9  c #11A635",
"0  c #16AB34",
"q  c #1CAC34",
"w  c #1DA73C",
"e  c #14AD3B",
"r  c #1CAC3C",
"t  c #14B235",
"y  c #1DB132",
"u  c #1CB23B",
"i  c #24AC2C",
"p  c #2CAB2B",
"a  c #3AA52A",
"s  c #35AA2A",
"d  c #3CAC2C",
"f  c #23B22D",
"g  c #2CB02D",
"h  c #37B32A",
"j  c #3CB22C",
"k  c #2AA631",
"l  c #23AC35",
"z  c #2AAC34",
"x  c #24A438",
"c  c #2AA63A",
"v  c #23AB3C",
"b  c #2AAB3B",
"n  c #33AC33",
"m  c #3BAC34",
"M  c #3BA438",
"N  c #32AD3A",
"B  c #38AE3C",
"V  c #27B237",
"C  c #2CB133",
"Z  c #24B23C",
"A  c #34B335",
"S  c #3CB233",
"D  c #39B33A",
"F  c #738B12",
"G  c #5CB61F",
"H  c #66B81B",
"J  c #73BA1A",
"K  c #7BBD1D",
"L  c #46AC24",
"P  c #43AC2B",
"I  c #42B226",
"U  c #47B628",
"Y  c #43B52C",
"T  c #4BB32C",
"R  c #5AB525",
"E  c #5ABA25",
"W  c #55B42D",
"Q  c #5DB52C",
"!  c #55B92D",
"~  c #4BAF34",
"^  c #43AC38",
"/  c #42B433",
"(  c #4AB331",
")  c #47B539",
"_  c #53B333",
"`  c #5BB532",
"'  c #59BA37",
"]  c #64AF2D",
"[  c #63B525",
"{  c #6BB724",
"}  c #64BB24",
"|  c #6BBB23",
" . c #64B52C",
".. c #68B42B",
"X. c #63BB2C",
"o. c #6DBA2B",
"O. c #71B622",
"+. c #73BC24",
"@. c #7BBD23",
"#. c #7AB62A",
"$. c #73BC2D",
"%. c #7BBD2A",
"&. c #66B935",
"*. c #78BB32",
"=. c #76C31C",
"-. c #7CC51C",
";. c #6CC128",
":. c #75C224",
">. c #7CC223",
",. c #7DCA23",
"<. c #73C12B",
"1. c #7CC12B",
"2. c #6DC23A",
"3. c #74C332",
"4. c #79C133",
"5. c #1CAC41",
"6. c #19AA47",
"7. c #1BB245",
"8. c #25AB43",
"9. c #29AA46",
"0. c #32A64B",
"q. c #24B143",
"w. c #25B147",
"e. c #2CB14B",
"r. c #3BB141",
"t. c #39B248",
"y. c #25AE51",
"u. c #53AF41",
"i. c #45B444",
"p. c #57B646",
"a. c #94BD0F",
"s. c #8BBD15",
"d. c #86B71F",
"f. c #84BC1C",
"g. c #8AB918",
"h. c #8CBD1D",
"j. c #94BC15",
"k. c #9BBE15",
"l. c #92B71B",
"z. c #93BE1C",
"x. c #9BBD1C",
"c. c #A0BE1C",
"v. c #86B525",
"b. c #84BD24",
"n. c #8CBD22",
"m. c #8EB62E",
"M. c #84BD2B",
"N. c #8BBD2A",
"B. c #93BE23",
"V. c #9ABD24",
"C. c #93BE29",
"Z. c #99BE2A",
"A. c #88BD31",
"S. c #A1BD25",
"D. c #DE970F",
"F. c #DD9B17",
"G. c #C0AC3C",
"H. c #8BC30D",
"J. c #8BC70E",
"K. c #93C50A",
"L. c #85C414",
"P. c #8CC415",
"I. c #86C917",
"U. c #8BC815",
"Y. c #85C41D",
"T. c #8CC31D",
"R. c #84C91B",
"E. c #8CC91C",
"W. c #93C415",
"Q. c #9BC215",
"!. c #98C916",
"~. c #93C31D",
"^. c #9AC31C",
"/. c #93C91C",
"(. c #A0C21A",
"). c #85C323",
"_. c #8DC323",
"`. c #85C824",
"'. c #8CC924",
"]. c #84C22B",
"[. c #8DC32A",
"{. c #83C82B",
"}. c #8CC92B",
"|. c #93C323",
" X c #9AC323",
".X c #94C924",
"XX c #9BC925",
"oX c #94C42B",
"OX c #9AC52B",
"+X c #94C92C",
"@X c #9AC92B",
"#X c #80D129",
"$X c #8DC333",
"%X c #88C634",
"&X c #94C432",
"*X c #9AC632",
"=X c #94C932",
"-X c #9BC831",
";X c #93C53A",
":X c #99C53E",
">X c #A2C223",
",X c #A0C52D",
"<X c #A1C531",
"1X c #F8C22B",
"2X c #FFC92D",
"3X c #F8C835",
"4X c #F6D434",
"5X c #B9A853",
"6X c #EC835A",
"7X c #ED8C61",
"8X c #FCA677",
"9X c #FDA778",
"0X c #FBA979",
"qX c #67249E",
"wX c #68239F",
"eX c #6722A3",
"rX c #6822A3",
/* pixels */
"z z C ].I.^.~.[.Y.~.|.|._.Y.T.h.P.T.~.n.n.B.h.T.B.B.OX+XoXOXOX@X,X+XOXn.n.B. X.X[./._.|.~.n.z.~.}.) k l r T |.|._.|.|.^.^.~._._.",
"b z d $.b.|.n.[.Y.|. X^.T._._.T.h.h.[.[.[.[.h.z.l. X+XoXOX*X=XoXOX|._.j.n.M.oX[.%X X|.~.~.|.~.E.z.Q n Z u ( [.z.|._._.Y.Y.T.|.|.",
"o.+.[ ~ S / T b.[.|.B.B.h.T.T..X|.n.n.n._.[.n.B.l.[.}.OXOX=X=XoXoXT.).z.%.) ' _ ' [.T.T.^. X~.T.P.%.o.o.o.@.T.Y. X X|.~.~.|.|.|.",
"^.Q.b.B e t l O.[.|.|.B.h.T.T._.[.n.~.z.~.~._.[.h._.[.@X@X.X+X.XoX~.[.^.3.e.t.q.r.@.T.Y.|.z.s.~.T..X~.^.^.^.~._._._._._._._._._.",
"C.^.>.n e v v #._.oXOX.X|.n.n.g._._..XOXOX+X|.|.|.OXV.OX.X|.XX.X+X~.oX>X4.e.e.q.N b. X_._.Y.P.|.~.|.T.T.|.^.~. X|.~.~.|.|.|.|.|.",
"|.|.:.A r c N #.OX+X+XOXOX|.h.h.^. X&X;X;X*XOXOXoX*XA.M.).@X-XoX+X.X*X,X4.B N z d @.|.[.T.`.~. XY.T.T.|. X|.T.|.^.^.|._._._.|.|.",
"H.^.h.X.` W W >.+X+X+XoXOX X|.oXOXOXOXoX&X*X*X*X&.' ' Q #.*X*X&XOXOXOXoX%X&. .Q [ f.).|.T._.^.z.~.~.~.^.~.|.~.~.T.T._.[.|.|.|.^.",
"B.C.z.T.x.^.T.!..XoXOX@XOXOXOX.XoXOXXX^. XOX&X;Xt.q.Z A ..[.|.+X X|.OX.X+X_.V.V. X^._.~.T.Y.T.T.x.^.|.|._._.~.W.T.T.|.V. X|.|.T.",
"|.Y.Y. XC.b.Y.|.oX[.W.XXoX*XOX+X=XOX XN.N.B.OX$Xi.b j w.&.).j.C.k.s.N.S._.).~. XT.T.T.~.|.|.|.~.~.)._..XC.oX.X~.T.~.`.B.~.|.|.[.",
"~.P.L.T.|.~.~.T.n.].~.@X[.&X[.}.OX XZ.C.n.j.l.M.i.9.9.e.*.z.W.$XoX~.n.B.T.f.~. X_.T.T.|.|.|.|.|.^.|._.I.P.T.T.^.~.|.~. XT.~.V.C.",
"|. XB.|.[._.|.|.`.).x.N.o.3.$.M.+X.XT.h.f.g.g.Y.W u.p.p.&.O.H &.$.k.I.n.T.T._.[._._.|.|.|.|.|.~.~.B.|.T.^.).X. .X.$.z.^.Y.~.|.U.",
"_.|.B.V.B.g.j.k.).b.V. .v w.w.p.-XOX^.h.h.h.h.T.j. XOX.Xi.0.l 9 _ k.U._.~._.n._._._.|.|.|.|.~.^._.|.[._.XX} C v 5.B >.T.`.^.C.I.",
"^.~.T._.|.|._.T.T._.~.R v 8.9.p.OXOX*XOX|.h.h.h.s.}.;X@Xi.9.c r ( k.E._.T._._._._.|.|.|.|.|.|.~.'.|.[._./.H i v q n ].Y.R.H.B.T.",
"~.|.Y.Y.Y.|.C.n.B.b.b.R w v b _ OX=X=X@X.X).b.f.P.}.;X          T j.~.T.T.[._.|.|.|.|.|.|.|.|.|._.|.|. XOX..p q 8.m ]..X.XT.Z.~.",
"%.1.>._.^.z.z.B.W._.[.{ n s ^ &.OXoXOX XOX&Xn.z.|..XXX          G z.|.T._.oX_.|.^.^.|.|.|.|.|.|.Y.[._.|.oXo.j p V j H K M.@.oXT.",
"k 7 j #.V.h.`.}.^.[.oXoXM.f.d._..X[.&XOXXX+X[.|.*X    2X2X2X2X2X     X~._.oXY.|.|.|.^.|.|.|.|.[.z.oX~.W.T.[.).>.`.<.d b v g 3.Y.",
"x v d >.T._.+XOXOX+X+XOX+X+XOX|.b.|.&X:XoX:X  OX-X+ 2X2X2X2X2X2X2X2X      |.~.oX|.[.V.x._._.[.]._.~.~.~.T..X.X.X_.v.d v c p #.|.",
"5.w a b. XOX&X*X@X@XOXOX@XOXoXoXn.L._.+X^.*X   X'.> 2X2X2X2X2X2X2X2XG.G.G.d.h.[.|.[. X_.}.|.~.^.|.|.T.T.~.|.|.T.[.+.V 8.b z <.|.",
"v l P ].XX+X+X.XOXOXOXOXOXOXOXOXoXT.|.+XT.%X  4X2X2X2X2X2X2X2X2X2X2X2X2X2X  X |.|.).P.-.].oXT.|.|.|.~.~.Y._.T.z.[.$.P l y L +.|.",
"J { O.[.OXoXOX X|.|.|.OXoX-XoXoXoXh.n.*.T i.i.M   2X2X2X2X2X2X2X2X2X2X2X2X2X3X  b.T j h S $.T.^.B.|.T.T._.|.|.^.[.).O.;.;.+._.|.",
"k.^._..X.XoXOXV.n.n._.[.oXoXoXoX+XB. XA.C v y.0.@.5X2X2X2X2X2X2X2X2X2X2X2X2X3X  ).z 0 e 0 $.~.~.|.|.~.T._.|.|.~.^.~.T. X^.~.T.T.",
"n.n._..X.X+X.Xh.f.h.n._.[.oXoXoXoXZ. Xv.7 7 r k J 5X2X2X2X2X2X2X2X2X2X2X2X1X3X  |.l l r q +._.{._.~.^.~._._._.|.Q.>X^.|.|.~. X|.",
"[.z.z. XOX*X*XC.g.h.h.h.n.|.oXOX*X&X[.#.z i r 7 b.5X2X2X2X2X2X2X2X2X2X2X2XD.F.  ].8.c v q <.Y.+X|.~.T.|.|. X X[.P.z._. X X|.|._.",
"h.g.|.*X=XoXOX|.h.h.h.h.h.n.oXOX.X'./.h.`  .&.R _     2X2X2X2X2X2X2X2X2XD.D.F.  ~.` O.| X.|.L..XT.~.^. X X.X|._.|.[./.Y.T.W.T.|.",
"d.Y.).}.+X<X&XoXB.n.n.h.h._.oXoXoX=XT.H./.OXV.>Xn     * & * * * * * - - *       Q.^.^.^.^.^.~.|.~.T.T.T.|.|.|.|.[.|.}.~.~._.h.~.",
"[._.n.OXOXOX&XOXOXB.n.n.n.oXoXOXOXOXC.B.B.C.n.s.B     & & & & & & & & & &       T.T.~.~.T.T.T.T.|._._._.|.|.|.|.W.T.T.~.|..X_./.",
"B.k.j. X@X+X-X>XoXoX|.oXOXoXOXOX<XOX_.Y.L.Y.T.s.d     & & & = & & & & & &       _.|.|.|.|.|.^.^.|.|._._.|.^.~.T. X[..X.X|.|.).P.",
"+XOXb.[ Q ' 2.[.*XoX-X@XoXOXOXOX_.T.~.~.~.z.j.s.} )   & & & & & & & & =     X n._.[..X|.|.|.|.|.|.|._._.|.~.~.T.W.L.[ Q  . .].'.",
"+X=X%Xm x k B *.-X-X-XOXOXOXOXOX|.[.).@.]._.~.^.Q.m.; O O O O O O O O O     X _.^.^.~.|.|._..X[. X|._._.~.|.~.T..X%.V u q g :.W.",
" XOX$Xr.5.x z *.@XoXOXOXOXOXOX|.h.|.B.C.OX~.P._.H.T.|.                      X P.^.      |.|.|.|.|.|._._.~.|.T.Y.[.@.b v z c *.[.",
"-XoXA.r.9.8.v $.|.|. X.X.X X|.n.B.T.P.L.L.H.T.[.L.      5 4 4 4 4 4 4 4 4 2 3     0X0X0X  _._._.|.|.|.|.|.|._._.c.v.b 5.b N %. X",
".X@X_.' B D n O.h.h.~.z.h.h._._._.P..XoXB.~.OXm.  4 4 4 4 4 4 4 4 4 4 4 4 2 2 2   9X9X6   |.~.^.|.|.|.|.|.|._._./.>./ A j S X.<.",
"B..X+X.X.XXX>Xx.b.n.n.n.n.h.T.T.T.T.T.~.|.|.|.d.  4 4 4 4 4 4 4 4 4 4 4 4 2 2 2   9X8X6   ~.[.V.C.OX|.T.j.k.|.L.~.^.-.R.W.M.d q ",
"[.oXoXoX=X=X+X}.).).n.n.n.|.T.T.Y.T.~.^.|.|.      4 4 4 4 4 4 4 4 4 4 4 4 2 2 2 0X9X9X  [.|.OX|.P. X[._.^.|.|.^.|.~._.+X^.N.S u ",
").).|.OXOX@X+XoX[.[.T.|.T.|._.|.|.T.T.|.  X 9X0X0X    4 4 4 4 4 4 4 4 4 4       9X    _.|..X XT.T.OX|.T.~._.`.[.n.P.z.*X|.b.S z ",
"g.h._..XOXOXOXOX[.|.h.~.T.|._.|. X|.T.Y.  X 0X7X7X    4 4 4 4 4 4 4 4 4 4   . g.v.Y.T.|.|.'.).h.Q.B.b.Y._._.T.T..XW.z.&X].$.A v ",
"B.C.oXoX+X+X+X[.n.T.T.~.~.|._.|..X|._.T.  X 9X6X6     4 4 4 4 4 4 4 4 4 4   . V j n.~.|.U.~.`.[..X! C k k _ [.|.[.|.T.^.~.!.P._.",
".XOXOXOXOXOX[._.h.T.~.~.~.|.|._._._.|. X  X 9X%   j.  4 4 4 4 4 4 4 4 4 4   . y q v.|. XU.~.,.OX>XT q v 0 T |.^._.oX_.T.`.P.L.[.",
".XOXOXOX X X X^.h.z.|.T.|.T.|.|._._.|.|.|.|.      ).                        . 5.c )._.V.P.~.-.OX>X( l z q Y ).|.~.|.[.|.'.|.[..X",
"-X*X&X%X%X[.[.OXz.h.|.h._.g.|.~.|.|._.`.Y._.: : F .X  @ @ @ @ @ @ @ @ @ @   . 6.n _.|.oXY.^.T._.Q.T l l 0 j ).>X^.T.n.h.P.V.oX_.",
"*X.X|.OXk.a.).R I D N J #X|._.Z.C. XW.K.J.E.`.-.U 7.  eXeXrXrXeXeXeXrXrXeX  . J f.`.}.[..Xn.|._.W.f.K J +.@.T.C.|.~.~.^.|.|.|.s.",
"OX@X.XoXz.~.1.P x 8.i H }._.W.!.T.[.|.|.C.Z. XW.I $ rXeXrXrXeXeXeXeXeXrXeX      |.|.'.`._.T.|.z./._._._.oX X~._.|.|.~.~.|.|._.P.",
"n.~.B.b._.OX].P v v b  .~.I.h.T.T.[.|._.|.|.|.P.^ $ eXeXeXrX1 < 1 < < rXeXrXwX  |.|.|.z.z.z.~.T.T.[._.|.V.^.W.Y.[._.|._._.|._.T.",
"n.h.h.[.`.B.b.U 8 e 5.' j.^.>X<X_._.~.W.W.T.T.L.n # eXeXeXrX1 1 < 1 1 eXeXrXqX  |.|.|.T.T.~.|.~.|. X|.~.~.~./.|.|.`.|._._.|._.|.",
"[.T.B..X_.z.n.| Q ` ! ! G ` ! o.W.~.|.~.~.|.^.g.o eXeXeXeX<       1 < < eXeXqX  |.|._.[._.|._.T.~. X X/.Y.Y.|.Z. X_.|._.T. XT.|.",
"_._.|.|.T.^.|.`.^.W.P.Q i 8.6.~ Q.|.[.).).[.|.l.      , < <   _.~.  < < eXrXqX  _..X|..X|. X_.Y.T.|.^.~.T.Y._.C.|.T.|.~.T.^.~.|.",
"[.'..Xz.~.~.T.T.~. X^.[ 9 r e ) ^. XoXY.Y._.).b.      , < o T.OX|.z.o o rXeXqX  |..X_._._.|.|.|.P._.|.~.|.~./._.~.~.|.|.~.~.~.|.",
"|._._.~.|.[.).[.}.).).Q w l l U L.T.B.x.Q.^.|.d.      , 1   L. X|.g.  o eXeXqX  ~.|.T.|.z. X XXX^._._.T. X^.W.L.T.|._..X|.T.|.|.",
").[.T.~./.[.oXL./.C.n.| U S ( &.W.~. X~.^.~..Xv.          |.Q.T.T.B.  o eXrXrXrX  E._.K.C.J | o.} ).|.P.Y.oXB.U.|.[.| &.o.{ |.|.",
"~.~.~.|.P.[.|.W.|.C.OXT._.[.z. X_.|.[.T.T.T.T.f.          |.W.Y.Z.V.              '.C.~.[.j u q i [ ).Y.~. X|.Q.~.:.h 7.r g :.T.",
"T.'._.[.|.|.[.P.W.T._.U._..XT.T.~.|.|.|.~. X|.d.          _.~._. XN.              T.C..X!.^ w.b q X._._.~.z.[.oX|.@.n u v z 1.|.",
"_.Y.I.|.Q.^.T.P. X X|.|.|.OXoX[.I.T.T._.T.|.|.|.~.|.x.^._._.~.|.x.V.!./.`..XT.x.P.W.x.R.K.m r q 9 E _.[.).k.x.b._.@.n 0 q z $.Y.",
"|.Y.Y.@.=.@.+.`._._.T.T.~.|.|.|._.[.[._.T.T.~./.T.~.z.|._.T.~. X-.O.K d.%.|.`.T._._.OX_.B.` m C d +.T.].`.k.(.'./.L.^ g n / @.P.",
"T.Y.@./ f C d $. X/.E.|.^.^.|._.|. XOX|.|.z.~.~.Y.~.|._.~.~.|. XX.C f g T n.[..Xz.-.E.W.OX~.s.>.).z.|.`.~.z.[.'.^.~.M.).N.b.~./.",
"^./.b.m 9 e z o.OX~.Y.oX~.z.|.T.T.~./.T..X[._._._.~._.[.^.~..X^. .b 7 q S ).T.a.S.|.T.W.]..XW.}._.z.[.'.^.~.T.^.z.T.OX}.|.n.T.'.",
"|.I.).m w w.C ;. XW.~..XT.P.~.|.C.|.z.|. XOX~.T.|.~._.`.~.~._./.} v r 8./ ~.T.T.[.'.).Q._. XW.[._.W. XB.T.U.~. X>XT.W.).T.~.T.'.",
"T.^.b.^ v w d { |.Y.-.n.E.L.T. XoXC.|.|.b.].).N.OX|.Y._.oXoX|.c.X.v x c Y b.`.W.<.E.!.W.|..X~.[.[.~./._.~./.).A.[.n.^._.Y.^.~.|.",
"B.[.).@.>.@.} ( m m Y *.}.Y.R.[.'._.|.:.T d d P :.n.x.|.|.[._.^.B.;.>.M.X.S D L ( >.Y.z.|.|.W.^.|. X|.C. X$.( S N ~ b.'.T.^.^.~.",
"~.[.[.T.E.P.N.( t 5.v  .~.OX[.k.z.W.~.K b w r l :.|. X~.|.B._.~.T.Y.'.x.| t u z d :.).B.|.T.^.|.Y._._.~.~.X.z q 0 m )..X_.|.|.[.",
"OXoXB.x.[.T.n.T 7 k z R W.XXOXk.~.Q.|.d.w.c 8.z >.B.~.Y.~.V.|.Y.T._.%XV.+.q Z v s ,.[.C.~.Y.OX|.~..X|.Q.Q.X.z l 0 S )..X_.|.|.|.",
"T.~.W.Q.OXT.[./ e 8.8.! T._.[.~.P.T.[.@.V 7 q f =.B.^.I.T.z.|._.~.I.'.Q.@.k r 0 d ,.[.C.~.Y. X~._.[.).z.|.X.b r r / >.[.|.|.|.~.",
"|.|._.E._.L./.:.} H } :.W.P.B. X_.[.oXB.&.}  .X.Y.V.^.Y.T.|.|.|..XT.~.W.).] ' X.R '.|.|./.Y. XT.T.E.Y.~.^.).X. .X.o.T.|.[._.'.[.",
"OXB.I._.|.^.^..X_..X).Y.W.E.^.^.T.[.T.^.).~.P.T.z.x.Y.R.|. X|.|.'.^.z.).}.T._.|.).^.|.T.T.[..X_. X|.).).~.~._.|.h.T.~.OX.X~.~.^.",
"|.~.~.).T.^.W.Y.R._.h.T.OX_.k.~.T.|././.~.|.~.|.~.OX.X.X X|.T.|.|. X~.[. XW.Y.OX.X|.).Y.T. X^././.~.[.}.~.~.T.W.~.'.~.oX|.~.|.oX"
};
