/* XPM */
static char *_d409519fc1a48deb5801fb399585b3c0jfKIu2nRx6NMmms[] = {
/* columns rows colors chars-per-pixel */
"64 64 247 2 ",
"   c #040100",
".  c #0A0200",
"X  c #00020C",
"o  c #130200",
"O  c #190804",
"+  c #0F1A0F",
"@  c #181705",
"#  c #030219",
"$  c #270603",
"%  c #231A04",
"&  c #371908",
"*  c #360E10",
"=  c #1A2610",
"-  c #252A08",
";  c #382C0E",
":  c #303509",
">  c #0B0330",
",  c #241132",
"<  c #27273F",
"1  c #333633",
"2  c #550908",
"3  c #4C1C07",
"4  c #541905",
"5  c #6D1008",
"6  c #542E17",
"7  c #6B3110",
"8  c #773313",
"9  c #4E3928",
"0  c #354411",
"q  c #24582F",
"w  c #434A0C",
"e  c #48500C",
"r  c #4F5711",
"t  c #6D5213",
"y  c #4C6611",
"u  c #566911",
"i  c #5A7514",
"p  c #636E18",
"a  c #4A4A33",
"s  c #734A2B",
"d  c #060A57",
"f  c #0D1151",
"g  c #2B2C41",
"h  c #0F126D",
"j  c #0A186B",
"k  c #721D5B",
"l  c #504E46",
"z  c #555A40",
"x  c #7C7B74",
"c  c #92140C",
"v  c #B0140F",
"b  c #8F330C",
"n  c #A92918",
"m  c #AF1230",
"M  c #8C2E27",
"N  c #CA0C05",
"B  c #D80801",
"V  c #C41202",
"C  c #D81A0E",
"Z  c #E30E07",
"A  c #E90C02",
"S  c #E81707",
"D  c #F41603",
"F  c #F51902",
"G  c #F61805",
"H  c #EC1B10",
"J  c #CC2B15",
"K  c #E1210B",
"L  c #9A440E",
"P  c #994514",
"I  c #834C27",
"U  c #9C6F2A",
"Y  c #D95E32",
"T  c #977543",
"R  c #BE6942",
"E  c #867867",
"W  c #2A9E2D",
"Q  c #1EAD2D",
"!  c #1CAC35",
"~  c #17AA38",
"^  c #15AB3D",
"/  c #1CAC3B",
"(  c #1BB139",
")  c #28AB2D",
"_  c #36AC2C",
"`  c #2EB52C",
"'  c #3CB32D",
"]  c #24A534",
"[  c #2AA537",
"{  c #23AC35",
"}  c #2BAD34",
"|  c #23AC3B",
" . c #2AAC3B",
".. c #33AD35",
"X. c #38AE38",
"o. c #29B137",
"O. c #3DB433",
"+. c #35B339",
"@. c #6B921B",
"#. c #75991B",
"$. c #6BA91D",
"%. c #7ABC1E",
"&. c #47AD28",
"*. c #57AD28",
"=. c #44B22E",
"-. c #4BB628",
";. c #4BB42D",
":. c #57B727",
">. c #53B32C",
",. c #5BB52B",
"<. c #5CBA2B",
"1. c #42AD34",
"2. c #44B332",
"3. c #4CB432",
"4. c #46B53B",
"5. c #54B432",
"6. c #5BB734",
"7. c #63BA26",
"8. c #6AB825",
"9. c #63B52B",
"0. c #62BB2B",
"q. c #6CBB2C",
"w. c #76B625",
"e. c #73BB25",
"r. c #7BBD24",
"t. c #73B02C",
"y. c #72BC2A",
"u. c #7CBE2A",
"i. c #65B736",
"p. c #6BBB35",
"a. c #7AC11B",
"s. c #6CC128",
"d. c #74C124",
"f. c #7BC225",
"g. c #77C22B",
"h. c #78C336",
"j. c #1AAB42",
"k. c #19B042",
"l. c #23AC42",
"z. c #2CAC48",
"x. c #36AE47",
"c. c #26B145",
"v. c #32B345",
"b. c #4AB742",
"n. c #53BB43",
"m. c #85AF1F",
"M. c #8DBD15",
"N. c #84BA1D",
"B. c #8CBE1E",
"V. c #95BE14",
"C. c #98BF16",
"Z. c #92BD1D",
"A. c #9ABD1D",
"S. c #A3BF1F",
"D. c #B48D34",
"F. c #84BD24",
"G. c #8CBE22",
"H. c #86B12C",
"J. c #87B929",
"K. c #93BE22",
"L. c #99BE23",
"P. c #94BE2A",
"I. c #98BD28",
"U. c #D79A16",
"Y. c #ED9B1B",
"T. c #E9A606",
"R. c #F4B60A",
"E. c #ECAC17",
"W. c #F1B017",
"Q. c #D59D20",
"!. c #D8AB2D",
"~. c #EEB135",
"^. c #96C00F",
"/. c #8CC315",
"(. c #89C417",
"). c #85C41D",
"_. c #8DC31D",
"`. c #8DC91A",
"'. c #92C315",
"]. c #97C517",
"[. c #92C31D",
"{. c #9AC31C",
"}. c #A3C519",
"|. c #85C423",
" X c #8DC322",
".X c #8AC927",
"XX c #8CC824",
"oX c #84C42B",
"OX c #8CC42A",
"+X c #92C322",
"@X c #9AC424",
"#X c #92C923",
"$X c #9BC925",
"%X c #94C52B",
"&X c #9AC62C",
"*X c #95C82C",
"=X c #99C82D",
"-X c #8CC835",
";X c #94C533",
":X c #9BC632",
">X c #93C932",
",X c #98C834",
"<X c #A3C427",
"1X c #FFC60C",
"2X c #FEC80C",
"3X c #FEC412",
"4X c #FBC61A",
"5X c #ECC339",
"6X c #F7C332",
"7X c #AA9653",
"8X c #B79463",
"9X c #BDA47B",
"0X c #FB8A4F",
"qX c #CBA645",
"wX c #F4B153",
"eX c #DB916A",
"rX c #E68A66",
"tX c #D0A870",
"yX c #FDB66E",
"uX c #E6C147",
"iX c #E6C459",
"pX c #FFCD66",
"aX c #FECC79",
"sX c #FDD078",
"dX c #081786",
"fX c #0A1B9A",
"gX c #22128B",
"hX c #132599",
"jX c #0419A9",
"kX c #001CB6",
"lX c #102CAE",
"zX c #1438C7",
"xX c #143EDA",
"cX c #1741D4",
"vX c #B8A48A",
"bX c #D0B38A",
"nX c #EBAB81",
"mX c #C1BEA5",
"MX c #F6CC87",
"NX c #F8D185",
"BX c #EED09C",
"VX c #CBC7AE",
"CX c #F2E9B3",
"ZX c #FCE9BA",
"AX c #FDF1BC",
"SX c #FBF1C6",
"DX c #F8F1CD",
/* pixels */
"} o.{ 7.|.[.[.+XOX X{.+X|.G.).B././.)._.K.Z.B.).G.K.=X*X%X%X%X&X=X&X%XG.G.K.@X&X#X+X X X'.V.K.+XoX2.! ) } ,.$X/. X[.[.A.A.[.[.(.",
"! | ! 7. X[.[.+XOX X[.[._.+X|.Z.Z.B. XB. XP.B.G.K.+X%X&X*X*X%X&X&X%X+XG.G.+X&X=X%X+X+X{.[. X+X`.G.1.^ ~ / ,.{.V.+X+X|.|.[.[.[. X",
"-.>.>.5.:.7.:.r.|.Z.L.Z._._._. X_.G. XG.G.K.P.K.Z.+X*X&X>X>X&X*X+XK.G./.u.6.p.0.p.@X|.'.[. X+X XF.8.*.;.>.y.OX+X[.[.[. X+X X+X X",
").).B.5.} } / 6.|.[.[.B.B._._. X XG.G.)._.|. XB.B.|.OX&X=X;X&X*X+XK.F.{.p.x.+.o.4.G. X+X+X[._. X|.|.|._._.[.[. X|.|.|.+X+X+X+X+X",
"L.@X@X3./  .j.,./..X-X+X+XG. X_.G.G.+X@X@X#X X X X+XK.&X$X&X&X*X%X*X%X{.p.x.x.c.X.G.[.OX XG.[.+X[._._.[.[.[.[.[. X X X+X_.[.+X+X",
" X X|.;.( / ^ ,.L.*X=X&X@X+XG.G.+X@X%X;X>X;X%X&X&X<XS.OX%X&X&X%X%X&X%X$Xh.z.l.j...F.[.|.)._.+X[.[._._. X X+X+X@X{.[.[.+X_.[.+X+X",
"/.'.'.7.=.=.O.8.P.*X&X&X%X+X X X@X&X=X*X>X:X%X:Xh.p.g.i.u.&X=X>X=X=X%X%Xh.3.;.=.>.|.+X_.(./._.[.Z.+X+X+X+X[.[.[.[._.[.+X_._.+X+X",
"K.L.L.N.B. XF.[.OXOX%X&X&X%X%X%X*X=X&X<X#X<X$X;Xb.v.+.X.q.+X%X;X=X=X&X%X>XF.B.G.F.[.B. X_._.[.[.[.[.+X_._._._._._.+X+X X X X+X+X",
"G. X X+X&X).F. XOX%X[.%X&X*X*X*X*X&X%X%XoXI.@X;X4.v.+.c.p.G.B.K.K.B.OXI.%X).B.K. X_.K.+X+X+X+X+X[._._.%X+X#X#X+X X_._.+X+X+X+X+X",
"C.[.(.).I.'._.'.B.P.@X&X&X*X*X*X*X*X%XL.F.Z.M.%X4.z.v.c.p.{.Z.I.L.B.OXZ.G.(._.%X X(._.[.@X+X X X+X X X[.[.[.[.[.[.[.[.+X+X+X+X+X",
" X+X[./.+X|._.[. X|.Z.+Xg.oXoXoX*X%XJ.B.M.K.B.f.5.4.x.b.p.a.N.w.F.{.B.B. X_._.+X X_. X X+X[.[.[.+X+X X[.+X|.r.r.F.G.#X'._.[. X_.",
" XOX X[.K.G.Z.Z.G.G.A.w.X.v.v.b.;X&X{.F.B.G.M./.N.|.-Xh.n.v.[ } :.Z.|. X X_._. X X+X+X X+X[.[.+X+X X XOX+X7.} l. .:.'.OXOX@X[.'.",
"[.[.[._.+X+X_.Z.G.|.{.8. .l.l.4.%X=X%X+XK.Z.M.M.M.@X=X=Xn. .[ ~ ;.A.[._._._. X X X+X+X+X[.+X+X+X+X X X[.[.-.] o.| 3._.)._.'.[./.",
"[.[./.). X X XB.B.).[.7.| | l.4.OX>X&X%X%XG.G.F.F.OX>X<X4.~ ] / ;.A.(._._. X X X+X+X+X+X[.[.+X+X X X X[.+X3.! {  .3.#X@X[.+X#X).",
" X X X|.K.K.B.K.Z.B.L.y...] [ 4.%X=X@X*X%XOXG.G.+X&X&X<X6.} [  .:.[.G.+X X X_._.[.+X+X+X+X+X+X+X X_.[.[. X<.) { o.;.a.G.G.F.%X X",
"_ _ ..8.G.Z. X+X@X+X%X%Xy.w.%.r.%X;X;X$X$X%X XG.H.m.H.t.t.$.$.8.a.[.+X X X X_.[.[.+X[.+X+X+X X X[.+X[.[. Xu.e.d.f.0._ o.O.-.|.(.",
"] [ [ 7.|.+XOX%X*X#X>X*X=X&XL.G.|.@X;X;X%X-X>X%X- . . . . .   #.+X@X).+X+X+X+X+X+X+X+X+X X X X X+X[.[. X+X#X#X[.+X9.[  .[ =.K.[.",
"/ | ] 7.G.#X%X;X&X%X;X@X&X>X&X+XG.V.OX:X@X;X%X. 7XuX5X5X5X5XiX;   p `.+X+X+X X X+X+X+X X X X X X+X[.+X.XZ.C./._.|.6./ ) | O._.[.",
"j.^ ] 8.OX*X%X=X&X&X*X&X&X&X&X%X&XK.G.#X@X,X@Xo D.4X2X2X1X1X4XU t p i #. X_.[. XA. X[.`.[.+X+X[._.[.[.[._._._._.oX,._ k.} &.|.[.",
"8.7.8.F.%X*X%X%X@X%X+X%X*X=X=X%X=XG.K.J.*.+ @ D.Q.3X2X2X1X2X1X3X4X!.7Xy  X[.@X XF.3.=.' 5.u._.[.[.+X X[. X X[.[.OXg.7.0.e.%.XX X",
"V.[. X%X*X=X&X+XG.G.G. X%X*X=X%X=X+X+XJ._   6 !.T.3X1X1X1X1X1X1X3X4X~.p #.[.@X[.r.} / !  .r._.+X[.+X X_. XOX[.[.{.#XXX[.[._._._.",
"B.B.G.%X%X%X&XK.B.G.B.G. X%X*X%X=X%X+XJ.W   9 5X3X1XR.R.R.1X2X2X1X1X4X!.7Xi  X'.f.[ / ! | |.`.OX[.+X+X+X X X+X[.[.{.+X_.+X+XK.@X",
" XB.Z.%X%X%X=X+XB.B.B.G.G.G.%X%X=X%X+XJ.[ + o wX4X3XR.T.R.3X1X2X2X1X1X4XiXw OX/.u.| | | | F._.XX[.+X[.[.+X X#X+X[.[.+X|. X@X@X#X",
"B.M.K.%X*X*X=X%XG.G.B.G.B.G.%X%X*X=X+XG.:.*.@ s qX~.W.W.R.3X1X1X1X1X1X4XiXw OX_. X,.0.0.6._._.OX_.[.[.[.+X+X#X X X X#X+X[././.[.",
"N.N.|.OX*X*X;X*X+XG.G.B.G.G.*X%X*X=X X_. X<X@ . 8XtXwXY.T.3X1X1X1X2X1X4XiXw  X_.]. X}.].+X{._.+X_.[.[._.+X[._. X|. X#X+X+X_._.[.",
"|.K.Z. X*X*X*X:X%XK.G.B.G.G.=X%X%X=X+XK.+X|.B.. vXo T ~.W.T.T.R.R.1X1XW.qXw A.|.[.|._.).XX X_.{.@X+XOX X+X[.[.+X+X_.[._.+X X X X",
"#X+XB.L.@X#X:X$X&X*XXX+X%X*X&X&X&X%X X(.'. X: ; bX. T wX~.T.E.E.W.R.3XW.qXe [. XOX X[.+X[.[. X+X+X+X X|.@XP.+X[.+XOX#X[.$X+X_./.",
"=X*X%X8.9.q.h.|.OX;X:X%X*X&X&X&X%X+X X[.A.+X@ BXMX9 8XsXpX~.~.pX6XT.T.D.T i @XB. X+X@X[.[.[. X X+X+X_._.[.[./././.%.7.9.q.y.|.(.",
"*X%X:X5.[ ! j.i.;X:X<X=X=X=X&X%X+X X XF.oX|.O BXsXNXNXsXsXpXpXpX6XT.U.s . OX#X_.[.[.{.+X+X+X+X+X+X+X+X+X%X+X X X+X8.} ~ | ;._._.",
"*X%X&X6. .[ / i.*X-X*X=X&X%X%X+X X_._.L.@X[.- bXMXsXsXsXsXsXpX~.U.U.D.O @ XXOX).[.[.[.+X+X+X+X+X+X+X[.[. X[._. X@X<.^ ) [ 2. X|.",
"=X=X#X6.z.l.^ ,.|..X{.#X@X+X XG.B.B._.M.(.(._.. 9XNXsXsXsXaXwXY.Y.t : u Z.@XZ.Z.[. X X+X X X+X+X+X_.[.[. X[.(. X{.<.^ { [ =.+X*X",
"#X=X=Xp.b.+. .9.B.K.V.[.K.B.B. X XB.B.OXOX+X@XP.: tXtXeXrX0X0X0XY 2 w 8.r.#X{.{.+X X X+X+X[.[.+X_. X+X+X%X+X X XK.q.+.+.O.;.q.g.",
"G.+X&XXX#X<X&X{.M.F.J.B.B.B. X_. X-     [.B.+XK.@Xo & t b V N N V v c $ o f./.[. X X[.+X+X+X+X+X+X+X_._.[.[._._.[.).f.{. X0. ./ ",
"G.P.%X;X%X%X:X#X.XG.G.B.B. X X_.r mXVXVX@ i XX(.0 O 5 n V S D D S S C n M 3 ; [.OX|.[.+X[.[.+X+X X X X_.+XK. X[.[.{.@X X#Xe.} { ",
"G.G.G.%X:X&X&X*X%X|.(._. X XG.[.a CXAXAXSXE . . O v N H G F F F F F S H K K J ; {. X[. X#X_.[. X_.%X@X_.+X[._.|.[._. X[.'.q.| ( ",
"B.B.G.#X=X=X=X&XP.P.K.Z._.+X+X+Xa CXZXMXaXR c c c N B G D F F F D A A A A F C ; N.XX.X@X#X X XG.].G.F.|.|.|.+XB.[.[.+X-XoXq.} ) ",
"G.G.+X+X#X*X>XOXB.+X|.B.[.+X XG.a ZXCXyXwXY B H B v N G F F F G S V v v N S J - O.(.'.[.(.'.`.[.(.3.| } } 9.{.[.+X+X X{.].[.|.|.",
"@X%X%X&X:X,X%X#XM./.(./.[.Z. X Xa BXMXyXY J B Z N 5 v D F F D D S 2 o s eXrXeX=  .Z.B.@X(.{.|.%X{.=.^ } { ,.@X[. X X X X|.G. X+X",
"&X&X&X$X@XL.Z.@XZ.Z.+X X XB.+X Xa bXbXnXb v N N n $ c D F F F G C 2   E ZXZXZX=  .[.+X@X).@X|.%X+X2.^ { / <.$X[. X X_.[.OX+X+X).",
"&X&X*X-X-XOX XOXG.B.).F. XB.[.+X Xu e e r 7 5 5 $ o 5 Z A A A B v * @ SXAXAXSXmX  ).[. X).{. X X).2.| ! o.<.+X{.@X@X XM._.%X#X|.",
"&X&X%X#X[.V.).7.' +.o.7.oX_.[.+X|. X[.'.'.y .       2 m m m m m k > + DXAXAXSXmX  XX.X+X#XG. XG.[.F.%.a.r.).+XG.+X[.{.[.[.G._.M.",
"*X%X%XOXB.C.OX>.] / ~ &.oX+X[.{. X+X[.P.A.OX#XV.&.X f gXgXgXgXgXfXfXj x DXDXDXVX  +X+X(.+X[.[._.`.OX X+X&X@X[. X+X_.|. X[.OX_.V.",
"G.G.G.B.|.[.@X,.) } | 4.[.(.|.@X).+X+X XZ.P.@X'.q j lXkXkXjXfXjXjXjXdX< l l l z @.+X+XP.{.K./.[. X). XXX+X[./. XOX{.C./.+X@X|. X",
"G.G.G.{.|._.G.>.) { / 3.B.[.@XP.+X+X X'.'._.).# j zXxXxXlXh d dXjXjXfXf # [.+X+X+X+X X_._.+X[.[.@X[.{.Z.[.+XZ. X|.|. X_._.@X).+X",
"G.G.G.K.|.[.K.f.0.q.q.<.-.3.2.,./._.|.K.[.+X{.# j zXxXzXfX> > d dXjXjXdXf i +X+X+X+X+X+X|.+X X_.{.+X{.'.).XX+XA.[. X X+X+X@X_.#X",
" XB. X X X[.{.[.[.].}.q.{ l.j.X./.[.@XP.1 1 g f lXcXxXlXj H.B.= > dXjXfXh g 1 a +X[.[.%XJ.{.|.).[.XX[.].).|.+X{.[.[.L.|._.@X[.[.",
" X X_.+X[.[.B.). X[.[.q.!  .! +.|.OXm.i ; 3 & , h hXlXdXf F._.y 0 d h h < * $ - +X[.[.+X X{.@X[.]. X_.@X[._.[./._.[.[.`._._.[.[.",
" X X X[.[.[.|.|.OX%XOX8.} } Q O.).|.#.o I L P 4 * > f f > m./.+X#.# > * 4 4 4 - +X+X_.`.+X).%X%X X+X[. X[.[._.(._.#X X#X X|.+X X",
" X X X X[.+X X/.{.L.[.).,.5.>.q.[.@X#.o s L b P 8 8 6 * O m.[.+X#.& 7 b L b 3 - +X+X X'.OX<.5.6.,.F.#X). X+X_.[.+Xu.,.6.,.8.#X).",
"_. X+X XB.+XOX/.{.@X X_. X#X{.@X{. X#.. 6 7 7 I 7 7 6 & O m./._.#.6 P P L 8 & -  X+X+XA. X} ! ~ ) e.XX(.K.P. X{. X,.Q k.] -.OX[.",
"+X_._._. X%X%X_./._. X[.[. X X+X+X[._.+X@ % % % % % % @ @ F.{./.#.& 4 4 4 & . : |.+XL.).'.X.k.{ } d.[.+X X|.).{.[.9.| | [ ' %X'.",
"+X_._.@X[.[./.(.+X+X[._.+X+X+X X_._.[. X X+X X X#X[.@XA.|.OX+X[.+X0 . . .     {.'.[.G. X).../ ] } y.#X X).A.L.G._.0.j./ [ O.oX(.",
" X_._.e.<.q.7.d. X|.+X_./.{.@X X|. X@X_._._._._. X|.XX[.[. X+X'.d.,.7.7.8.K.F.#X+XOX#X_.F.,.;.3.>.r. XXX).{.+X|._.%.;.-.>.7. X_.",
"_._._.3.! / ) ,.I.[.XX X[.[.{.+X X+X+X[.@X[.[.[.{.@X+X X{.+X+X[.0.| } ! O.[.)._.[.).`.{.@X[.[.XX).[.@X+X{. XXX#X{. X+X[.K.+X{.[.",
"+X[.[.>.! / ! 5.P._./.@X+X_.[.{.@X{._.[. XOX X XZ.[.{.|.[._. X@X0.! ] / 4.[. X'.L.#X@X XoX[.[.XX X_..X+X{._.).{.K. X#XXX X_._.(.",
"+X[.[.5. .l.| 5.|.[.'.[.[.`./.@XI.P.OX[./.#X#X'.'. X.XXX[././.[.0.| | ] 2._. X/.oXXX_.[._.[.[.|.[.'.[. X_.].@X@X[.[.(.OXOX+X XOX",
"+X[.[.i.O..._ >.e.f.s.r.|._./.+X%XG.#X+X%.y.y.e.|.OX XOX%X#X[.@Xq._ X.1.3.d.g.a.y.`.[.+X X X[. X X[._.G.[.F.y.p.g.|.{.|._.Z.+X+X",
"+X_._.|.)._. X,... .| ,.oXOX).[._.`.'.g.=. .| } s._.^.{.@X X/.{.|.a.|.[.<.} l._ 1.a.+X X+X X{.{. X[.|._. X,.} o. .5.+XOX_.[.[.+X",
" X X+X{.+X_.{.6.! { j.2.(.+X X[.Z.`.+XB.o.] l.~ e.@X+X[.[.+X+X[._._.XX{.e.~ | | _ ).K.Z.#XB. X+X_.+X[._._.5./ / { >.%X X X+X[.+X",
"+X X+X_.+X_.[.6.Q }  .=./.@X.X[.L.{. XB.+.] l.( d.@X[._._.+X+X+X[._._.{.e.{ | [ _ |.@X[.+X_.+X+X_.+X[.{.@X5.| ! { >. X X X+X+X[.",
"+X+X_.{.#X_.+Xp.+.X.v.>./.+X X@X+X[. XF.O._ ..` d.L.@X_._.+X+X+X+X[._.[.r.X.+...=.).+X+X_.+X+X_.+X+X+X@XG.,...} O.<. X_. X+X X+X",
" X+X_.|. X(.{. Xf.).N.f.[.[.+X{._._.+X[.g.r.F.%.'.A. X_._.[.+X+X+X+X[._.OXd.f.F.r.[. X+X_.+X+X_.+X+X_.[.].|.f.r.f.|.{.+X+X+X+X X",
"+X+X_.+X+X[.{.@X X+X+X|.].[.[.{._./.[.[.|.[.[.[.[._.|._.+X[.+X+X+X+X[.(.@X[.].{.[.[.|.+X_.+X+X_.+X[._.|._.[.+X[._.+X+X+X+X+X+X+X",
"+X+X+X_.)././._.)._. X).{.[.[.[.[.[.[.{.+X X XOX@X&X%X+X+X+X X X+X+X+X_.@X X|..X X+XOX_._.[.@X[.[.[._.%X+X/./.'.[.+X#X[.+X+X+X+X"
};
