/* XPM */
static char *_7f8dc8573694d3698bff63c1b6f9f59IB0k41xhLKPjS2dy[] = {
/* columns rows colors chars-per-pixel */
"64 64 233 2 ",
"   c #010100",
".  c #050406",
"X  c #040E05",
"o  c #0B0F03",
"O  c #120A03",
"+  c #100F09",
"@  c #0B1004",
"#  c #2B0D00",
"$  c #331203",
"%  c #152C0A",
"&  c #1F2B08",
"*  c #202B07",
"=  c #32350E",
"-  c #372918",
";  c #0C132C",
":  c #24213A",
">  c #410100",
",  c #4C1300",
"<  c #551700",
"1  c #5C1A00",
"2  c #650100",
"3  c #7B0100",
"4  c #671F00",
"5  c #513610",
"6  c #6B2100",
"7  c #732600",
"8  c #772800",
"9  c #792900",
"0  c #34450C",
"q  c #3C4C0B",
"w  c #324E13",
"e  c #5B4501",
"r  c #444219",
"t  c #7D4010",
"y  c #4B620C",
"u  c #496112",
"i  c #577310",
"p  c #6C630B",
"a  c #7F5B2C",
"s  c #050947",
"d  c #040957",
"f  c #101354",
"g  c #281050",
"h  c #080F68",
"j  c #081169",
"k  c #1C196A",
"l  c #081276",
"z  c #09147D",
"x  c #351169",
"c  c #3A157C",
"v  c #820100",
"b  c #8C0000",
"n  c #9C0100",
"m  c #A70701",
"M  c #BA0600",
"N  c #C40100",
"B  c #CC0100",
"V  c #D50300",
"C  c #D90500",
"Z  c #D60B00",
"A  c #E30700",
"S  c #E30900",
"D  c #EB0C00",
"F  c #835F02",
"G  c #8C6903",
"H  c #B17900",
"J  c #916938",
"K  c #A4753A",
"L  c #DA721D",
"P  c #EA7D1C",
"I  c #E77823",
"U  c #E97B23",
"Y  c #F4663B",
"T  c #168933",
"R  c #218930",
"E  c #1DAC2D",
"W  c #1CAC35",
"Q  c #17AA38",
"!  c #15AB3D",
"~  c #1DAC3C",
"^  c #1BB139",
"/  c #28AB2D",
"(  c #36AD2C",
")  c #2EB52C",
"_  c #3CB32D",
"`  c #24A634",
"'  c #29A637",
"]  c #23AC35",
"[  c #2BAD34",
"{  c #23AC3B",
"}  c #29AC3B",
"|  c #33AD35",
" . c #38AE38",
".. c #28B134",
"X. c #2BB23A",
"o. c #32B235",
"O. c #3CB333",
"+. c #38B43D",
"@. c #5C8B16",
"#. c #659018",
"$. c #72991A",
"%. c #75981A",
"&. c #7BA51B",
"*. c #77B919",
"=. c #7CBD1C",
"-. c #719027",
";. c #4DAE29",
":. c #44B22E",
">. c #4BB628",
",. c #4BB32D",
"<. c #58B727",
"1. c #53B32C",
"2. c #5BB52B",
"3. c #5CBA2B",
"4. c #42AD34",
"5. c #44B332",
"6. c #4CB432",
"7. c #43B43B",
"8. c #4BB53C",
"9. c #54B432",
"0. c #5DB530",
"q. c #59B937",
"w. c #67B523",
"e. c #64B925",
"r. c #6DBD25",
"t. c #63B52B",
"y. c #6AB62A",
"u. c #62BB2B",
"i. c #6CBB2C",
"p. c #76B625",
"a. c #74BB25",
"s. c #7BBD24",
"d. c #72BC2A",
"f. c #7CBE2A",
"g. c #65B736",
"h. c #6BBB35",
"j. c #7CC11C",
"k. c #6BC128",
"l. c #74C124",
"z. c #7BC225",
"x. c #74C22D",
"c. c #79C229",
"v. c #78C336",
"b. c #12AC44",
"n. c #1DAB42",
"m. c #23AC42",
"M. c #2CAC48",
"N. c #36AE47",
"B. c #26B144",
"V. c #32B345",
"C. c #48B742",
"Z. c #53BB43",
"A. c #98B60E",
"S. c #8DBD15",
"D. c #85B71B",
"F. c #8CBE1D",
"G. c #95BD14",
"H. c #98BF16",
"J. c #92BD1D",
"K. c #9ABD1D",
"L. c #A4A012",
"P. c #84BE24",
"I. c #8CBE22",
"U. c #89B928",
"Y. c #93BE22",
"T. c #99BE24",
"R. c #95BE29",
"E. c #99BE2A",
"W. c #8DBD31",
"Q. c #CF9602",
"!. c #E59D03",
"~. c #E99E00",
"^. c #EBA201",
"/. c #ECA30A",
"(. c #F2AB01",
"). c #EBB104",
"_. c #F7B302",
"`. c #FEBD03",
"'. c #EEA513",
"]. c #F08830",
"[. c #F3A928",
"{. c #FAA93B",
"}. c #96C00F",
"|. c #8CC315",
" X c #85C41D",
".X c #88C618",
"XX c #8DC31D",
"oX c #8DC91A",
"OX c #92C316",
"+X c #97C518",
"@X c #93C31D",
"#X c #9AC21C",
"$X c #A3C519",
"%X c #85C423",
"&X c #8DC322",
"*X c #89C926",
"=X c #8CC824",
"-X c #85C42A",
";X c #8CC42A",
":X c #92C322",
">X c #9AC324",
",X c #92C923",
"<X c #9BC925",
"1X c #94C52B",
"2X c #9AC62C",
"3X c #95C92C",
"4X c #99C82D",
"5X c #8CC835",
"6X c #94C533",
"7X c #9BC632",
"8X c #93C932",
"9X c #98C834",
"0X c #A3C427",
"qX c #C68241",
"wX c #C8985C",
"eX c #F39D46",
"rX c #FBAF4D",
"tX c #FFB555",
"yX c #FEB65A",
"uX c #FEB95C",
"iX c #FDBA67",
"pX c #ECBA73",
"aX c #FEC175",
"sX c #FEC478",
"dX c #0B1783",
"fX c #0C1C97",
"gX c #0E229E",
"hX c #0F21A5",
"jX c #1227AB",
"kX c #132AB1",
"lX c #142EBB",
"zX c #1631BF",
"xX c #1631C1",
/* pixels */
"[ X.] e.%X@X@X:X;X&X#X:X%XI. XF.|.|. XXXY.J.F. XI.Y.4X3X1X1X1X4X4X4X1XI.I.Y.>X2X,X:X&X&XOXG.Y.:X-X5.W / [ 2.<X|.&X@X@XK.K.@X@XXX",
"W { W e.&X@X@X:X;X&X@X@XXX:X%XJ.J.F.&XF.&XR.F.I.Y.Y.3X4X3X3X1X4X4X1X:XI.I.:X2X4X1X:X:X#X@X&X:XoXI.4.! Q ~ 2.#XG.:X:X X%X@X@X@X&X",
">.1.1.9.<.e.<.s.%XJ.T.J.XXXXXX&XXXI.&XI.I.Y.R.Y.J.:X3X4X8X8X2X1X:XY.I.|.f.q.h.u.h.>X%XOX@X&X:X&XP.y.2.,.1.d.&X:X@X@X@X&X:X&X:X&X",
" X XF.9.[ ] ~ 0.%X:X@XF.F.XXXX&X&XI.I. XXX%X&XF.F.%X;X2X4X6X2X3X:XY.P.#Xh.N.+.X.7.U.&X:X:X@XXX&X%X%X%XXXXX@X@X&X%X%X%X:X:X:X:X:X",
"T.>X>X6.~ } n.2.|.*X5X:XY.I.&XF.I.I.:X>X>X,X&X&X&X:XY.2X<X2X2X3X1X3X1X#Xv.N.N.B. .I.@X;X&XI.@X:X@XXXXX@X@X@X@X:X&X&X&X:XXXXX:X:X",
"&X&X%X,.^ ~ ! 2.T.3X4X2X>XY.I.F.:X>X1X6X8X6X1X2X2X0X$X;X1X2X4X1X1X3X1X<Xv.M.m.n.| P.@X%X XXX@X@X@XXXXX&X&X:X:X>X#X@X@X&XXXXX@X:X",
"|.OXOXw.:.:.O.y.R.3X2X4X1X:X&X&X>X2X4X3X8X7X1X7Xv.h.x.g.f.2X4X8X4X4X1X1Xv.6.,.:.1.%X:XXXXX|.XX@XJ.:X:X:X:X@X@X@X@XXX@X:X@X:X:X:X",
"I.Y.T.F.F.&XP.@X;X;X3X2X2X1X1X1X3X4X4X0X,X0X<X6XC.V.+. .y.:X1X6X4X4X4X1X8XP.F.U.P.@XXX&XXXXXXX@X@X@X:XXXXXXXXXXXXX:X:X:X:X:X:X:X",
"I.&X&X:X2X XP.&X;X1X@X1X4X3X3X3X3X4X1X:X-XE.>X6X8.V.+.B.h.I.I.Y.Y.F.;XE.1X XF.Y.&XXXY.:X:X:X:X:X@XXXXX:X:X,X,X:X&XXXXX:X:X:X:X:X",
"H.@X.X XE.OXXXOXF.W.>X2X4X3X3X3X3X3X1XT.P.J.S.6X7.M.V.B.h.>XJ.E.T.F.;XJ.I.|.XX1X&X.XXX@X>X:X&X&X:X&X&X@X@X@X@X@X@X@X@X:X:X:X:X:X",
"&X:X@X|.:X%XXX@X&X%XJ.Y.c.-X-X-X3X1XU.S.S.Y.F.c.9.7.N.C.h.j.D.p.P.#XF.F.&XXXXX:X&XXX&X&X@X@X@X@X:X:X&X@X:X%Xa.s.P.I.,XOX X@X&XXX",
"&X;X&X@XY.I.J.J.I.I.K.p.+.V.V.C.6X2X#XP.F.U.S.|.D.%X5Xv.Z.V.' [ <.J.%X&X&XXXXX&X&X:X:X&X:X@X@X:X:X&X&X;X:Xe.[ m.} <.OX;X;X>X@XOX",
"@X@XJ.XX:X:XXXJ.I.%X#Xw.} m.B.8.3X4X1X:XY.J.S.S.S.>X4X4XZ.} ' Q ,.K.oXXXXXXX&X&X&X:X:X:X@X:X:X:X:X&X&X@X@X>.` X.{ 6.XX XXXOX@X|.",
"@X@X|.XX&X&X&XF.F. X@Xw.{ { m.7.;X8X2X1X:XI.I.P.P.;X8X0X8.X           u XX&X&XXX:X:X:X:X@X@X:X:X&X&X&X@X:X6.W ] } 6.,X>X@X@X,XXX",
"&X&X&X%XY.Y.F.Y.J.F.T.d.| ` ' 8.1X4X>X3X1X;XI.I.:X2X2Xy w p F F F F F p u @.XXXX@X:X:X:X:X:X:X:X&XXX@X@X&X3./ ] X.,.j.I.I.P.1X&X",
"( ( | r.I.J.&X:X>X:X1X1Xd.p.*.s.1X6X6X<X<X:X:XI.1X@ o ).).`.`.`.`.`.`._.).H @ = @X:X@X:X:X:X&X&X:X:X@X@X&Xf.r.l.c.u.( o.O.>.%X.X",
"` ' ' e.%X:X;X1X3X,X8X3X4X2XT.I.%X>X6X6X1X6X8X1X-.e e `.`.`.`.`.`.`.`.`.`.Q.e & &X:X:X:X&X&X&X&X:X@X@X&X:X,X,X@X:Xy.' } ' :.Y.@X",
"~ { ` e.I.,X1X6X2X1X6X>X2X8X2X>XI.G.;X7X>X6X2X* L.`.`.`.`.`.`.`.`.`.`.`.`._.(.* &X:X@X&X&X&X&X&X:X@X:X*XJ.H.|.XX%Xq.~ ..] O.XX@X",
"n.! ` w.;X3X1X4X4X4X3X4X4X4X4X1X4XY.I.,X>X9X&.= Q.`.`.`.`.`.`.`.`.`.`.`.`._.^.5 %.&X@XoX@X:X:X@XXX@X@X@XXXXXXXXX-X2.( b.[ ;.%X@X",
"w.e.w.P.1X3X1X1X>X1X:X1X3X4X4X3X4XI.Y.P.<.C.X `.`.`.`.`.`.`.`.`.`._.(.(.(.^.^.H   6.:._ 9.f.XX@X@X:X&X@X&X&X@X@X;Xc.e.u.r.*.=X&X",
"G.@X&X:X3X4X2X:XI.I.I.&X:X3X4X3X3X:X:XU.O.B.X _.`.`.`.`.`.`.`.`.`.^.^././.!.Q.H @ [ ~ W } s.XX:X@X:X&XXX&X;X@X@X#X,X=X@X@XXXXXXX",
"F.F.I.1X1X1X4XY.F.I.F.I.&X:X3X3X4X1X:XU.[ ` X ^.(.`.`.`.`.`._.^./.[.[.tXtXK   i z.' ~ W ] %XoX;X@X:X:X:X&X&X:X@X@X#X:XXX:X:XY.>X",
"&XF.J.1X1X1X4X:XF.F.F.I.I.I.1X:X4X1X:XW.[ E X ^.^.`.`.`.`.`._.^.'.yXyXyXuXK   |.f.{ { { { P.XX=X@X:X@X@X:X&X,X:X@X@X:X%X&X>X>X,X",
"F.S.Y.1X3X3X4X1XI.I.F.I.F.I.:X:X3X4X:XI.<.<.X ^.^.^.^.[.[.^.^.{.rXtXtXa   K   XX&X2.t.u.0.XXXX;XXX@X@X@X:X:X:X&X&X&X,X:X@X|.|.@X",
"D.F.%X;X3X3X6X3XY.I.I.F.I.I.3X:X3X4X:XXX&X0X@ ^.~.~.^.iXiX/.^.rXtXtXtXa   K   XX+X:X$X+X&X@XXX:XXX@X@XXX:X@XXX&X%X&X,X:X&XXXXX@X",
"%XY.J.&X3X3X6X7X1XY.I.F.I.I.4X1X1X4X:XY.:X%XF.* G ~.^.rXyXtXtXtXtXtXtXJ - uXuX& @X%XXX X=X&XXX#X>X:X;X&X:X@X@X:X:XXX@XXX:X&X&X&X",
",X:XF.T.>X,X7X<X4X3X=X:X1X3X4X4X2X1X&X.XG.&X%XF.% ^.~.~.[.tXtXtXtXtXtXyXyXyXuX& ;X&X@X:X:X@X:X&X:X:X&X%X>XR.:X@X:X;X,X@X<X:XXX|.",
"4X3X:Xy.t.i.v.%X;X6X7X1X3X4X4X4X1X:X&X@XK.:XF.H.&   F ~.[.tXtXtXtXtXtXtXyXeXL * &X:X>X:X:X@X:X:X:X:XXXXX@X@X|.|.|.=.e.y.y.d.%X.X",
"3X1X7X9.' W n.g.6X7X0X4X4X4X4X1X:X&X&XP.-X%XXX#X@X    P P rXtXtXtXtXtXtXyXK   XX@X@X#X:X@X@X@X:X:X:X:X:X:X:X&X&X:Xy.[ Q { ,.XXXX",
"3X:X4Xq.} ' ~ g.3X5X3X4X2X1X1X:XI.XXXXT.>X@X|.&X.X*.= O t I I U I I I I I q P. X@X@X@X:X@X@X:X:X:X:X@X@X&X@XXX&X>X3.! / ' 5.&X%X",
"4X4X,Xq.M.m.! 0.%X*X#X,X>X:X&XI.XXXXXXS..X|.o       v B B B B B n         >XJ.J.@X      &X&X&X&X:X:X@X@X&X@XXX&X#X2.! ] ' :.:X3X",
",X4X4Xh.C.+.X.t.F.Y.G.@XY.F.F.&X&XXXXX1X& * m M M M Z S S S S V N n b w #.,X#X&.* wXwXwX& &.@X&X&X:X:X:X:X:X&X&XY.i.+.o.O.,.i.x.",
"I.:X4X=X,X0X2X#XS.P.U.F.F.F.&XXXXXXX$.  V D D D D D D D D D D D A B B 2   %X|.- sXaXsXsX  $.:X:X:X:XXXXX@X@XXXXX@X Xz.#X&Xu.} ~ ",
"I.R.6X6X1X1X7X,X*XI.I.F.F.&X&XXXXXXX$.  S D D C C C C C S D D D D V B n 3 0 0 - aXyXsXsX  $.:X:X&X&X&XXX:XY.&X@X@X#X>X&X,Xr.] ] ",
"I.I.I.R.7X2X2X3X1X%XXXXX&X&XF.@X:XF.$.  D D D       v D D D D D D C V N N B V B B ].aXsX  $.@X&XXX:X>XXX:X@XXX%X@XXX&X@XOXi.{ ^ ",
"F.F.I.,X4X4X4X2XR.R.Y.J.XX:X:X:X>X:X$.  Y Y Y   q   v D D D D D D V B N N B V N B U eXJ u &.%XI.@XI.P.%X%X%X:XF.@X@X:X5X-Xi.| / ",
"I.I.:X:X,X3X8X;XF.:X%XF.@X:X&XI.:X:X- pXsXsXsXpX-   v D D D D D D V M 2 N N N M n O O &..XOXoX@XXX6.{ [ [ t.#X@X:X:X&X#X+X@X%X%X",
">X1X1X2X7X9X1X,XS.|..X|.@XJ.&X&X&X:X- sXsXsXsXiX-   v A S D D D D C M > 3 3 3 3 2 0 0 Y..X#X%X:X#X:.! [ ] 2.>X@X&X&X&X&X%XI.&X:X",
"2X2X4X>X>XT.J.>XJ.J.:X&X&XF.:X&X%X:X- sXsXsXsXrX- s g x c c c dXc x g q @.T R T R @X,X>XXX>X%X:X:X5.! ] ~ 3.<X@X&X&XXX@X;X:X:X X",
"4X4X3X5X5X;X&X;XI.F. XP.&XF.@X:X%X&Xr wXiXiXiXqX$ h j hXhXhXhXhXhXdXl y l.` { ~ O. X@X&XXX#X@X:X X5.{ W ..3.:X#X>X>X&XS.XX:X,X%X",
"4X4X1X,X@XG. Xe._ o.[ w.-XXX@X:X%X&XD.@.5 5 5   ; j dXzXxXxXxXxXxXlXkX: 0 *.j.a.=.=X*X:X,XI.&XI.@XP.=.j.s. X:XI.:X@X#X@X@XI.XXS.",
"3X1X:X;XF.H.;X1.` ~ Q ;.-X:X@X#X&X:X@XR.o o o o s j z lXlXlXlXlXlXxXzXf . A.3X;X#X:X:XXX:X@X@XXXoX;X&X:X2X>X@X&X:XXX%X&X@X;XXXG.",
"I.I.I.F.%X@X>X<./ ] { 7.@XXX%X>XXX:X:X&Xy u p y ; j j l l z l fXfXlXxXlXkX0 :X:X:X:X:XR.#XY.|.@X&XXX&X=X:X@X|.&X;X#XH.|.:X>X%X&X",
"I.I.I.#X%XXXI.1./ ] ~ 6.F.@X>XR.:X:X&XOX    $   s z z d d d d dXfXkXzXzXxX0 :X:X:X:X&XXXXX:X@X@X>X@X#XJ.@X:XJ.&X%X%X&XXXXX>X X:X",
"I.I.I.Y.%X@XY.c.u.i.i.3.>.6.5.2.|.XX$.  1 7 7 1 k z dXz d 0 0 ; s fXgXlXzXf # # # $ i I.%X:X&XXX#X:X#XOX X=X:XK.@X&X&X:X:X>XXX,X",
"&XF.&X&X&X@X#X@X@X+X$Xi.] m.b. .|.@X%.  1 7 7 1 k dXz z s P.XX& . dXfXjXzXg 1 9 9 7   U.U.#X%XXX@X=X@X@X X%X:X#X@X@XT.%XXX>X@X@X",
"&X&XXX:X@X@XF.XX&X@X@Xi.W ' W o.%X;X%.  1 7 8 6 : h h s ; D.XX@X$.f k k g 6 9 9 7 6   D.&X#X>X@X@X&XXX>X@XXX@X|.XX@X@XoXXXXX@X@X",
"&X&X&X@X@X:X%X%X;X:X;Xr.[ ] E O. X%X$.  1 7 7 1 <       u XX|.@X$.# , 4 9 9 9 7 1 ,   D.:X X:X1X&X:X@X&X@X@XXXXXXX,X&X,X&X%X:X&X",
"&X&X&X&X@X:X&X|.#XT.@X X2.9.1.i.@X>X%.o < < 6 < O -X%X:X>X:X@X:X$.# , 7 7 6 < , o + &XOX;X3.9.q.2.P.,X X&X:XXX|.:Xf.<.q.2.r.,X X",
"XX&X:X&XF.:X;X|.#X>X&XXX&X,X#X>X#X&X X&X        %. XOX%X:X:X|.XX$.  . 1 1 $   * &X:X:XK.&X[ W Q / a.=X.XY.R.&X#X&X<.E b.` >.;X@X",
":XXXXXXX&X:X1XXX|.XX&X@X@X&X&X:X:X@XXX:XD.D.D.D.:XF.@X#X%X&X#X@X&XU.&.    0 D.U.%X:XT. XOX .n.] ] l.@X:X&X%X X#X@Xt.] ] ' _ 1XOX",
":XXXXX>X@X@X|..X:X:X@XXX:X:X:X&XXXXX@X&X&X:X&X&X,X@X>XK.%X;X:X@X:XY.@XoX X&XXX#XOX@XI.&X X| ~ ] [ c.,X&X XK.T.I.XXu.n.~ ' O.;X.X",
"&XXXXXa.3.i.e.l.&X%X:XXX|.#X>X&X%X&X>XXXXXXXXXXX&X%X=X@X@X&X:XOXl.3.k.e.r.T.;X,X:X;X,XXXP.2.,.6.1.s.:X*XXX#X:X%XXX*.,.>.1.e.&XXX",
"XXXXXX6.W ~ / 2.E.@X=X:X@X@X#X:X&X:X:X@X>X@X@X@X#X>X:X&X#X:X:X@Xu.{ ] W O.@XXXXX@X XoX#X>X@X@X=XXX@X>X:X#X&X=X,X#X&X:X@XY.:X#X@X",
":X@X@X1.W ~ W 9.W.XX|.:X:XXX@X#X>X#XXX@X&X;X&X&XJ.@X#X%X@XXX&X>Xu.W ` ~ 7.>X&XOXT.,X>X&X-X@X@X=X&XXX*X:X#X X X#XY.&X,X=X&XXXXX.X",
":X@X@X9.} m.{ 9.%X@XOX@X@XoX|.>XE.R.;X@X|.,X,XOXOX&X*X*X@X|.|.@Xu.{ { ` 5.XX&X|.-X=XXX@XXX@X@X%X@XOX@X&XXX+X>X>X@X@XXX;X;X:X&X;X",
":X@X@Xg.O.| ( 1.a.c.k.s.%XXX|.:X1XI.,X:X*.d.d.a.%X;X&X;X1X,X@X>Xi.(  .4.6.l.x.j.d.oX@X:X&X&X@X&X&X@XXXI.@XP.d.h.x.%X#X%XXXJ.:X&X",
":XXXXX%X XXX&X2.| } { 2.-X;X X@XXXoXOXc.:.} { [ k.XX}.#X>X&X|.#X%Xj.%X@X3.[ m.( 4. X:X&X:X&X#X#X&X@X%XXX&X2.[ ..} 9.:X;XXX@X@X:X",
"&X&X:X#X:XXX#X0.W ] n.5..X:X&X@XJ.oX:XF.X.` m.Q a.>X:X@X@X:X:X@XXXXX=X#Xa.Q { { (  XY.J.,XF.&X:XXX:X@XXXXX9.~ ~ ] 1.1X&X&X:X@X@X",
":X&X:XXX&XXX@X0.E [ } :.|.>X*X@XT.@X&XF.o.` m.~ l.>X@XXXXX:X:X:X@XXXXX#Xa.] ~ ' ( %X>X@X:XXX:X:XXX:X@X#X>X9.{ W / 1.&X&X&X:X:X@X",
":X:XXX#X,XXX:Xh.o. .V.1.|.:X&X>X:X@X&XP.O.( o.) l.T.>XXXXX:X:X:X:X@XXX@Xs. .o.| :. X:X:XXX:X:XXX&X:X:X>XI.0.| [ O.3.&X&X&X:X&X:X",
"&X:XXX%X&XXX#X&Xz. XD.c.@X@X:X#XXXXX:X#Xx.s.P.=.OXK.&XXXXX@X:X:X:X:X@XXX;Xl.z.P.s.@X&X:XXX:X:XXX:X:XXX@X@X%Xc.s.z.%X#X:X:X:X:X&X",
":X:XXX:X:X@X#X>X&X:X:X%X@X@X@X#XXX|.@X@X%X@X@X@X@XXX%XXX:X@X:X:X:X:X@XXX>X@X+X#X@X@X%X:XXX:X:XXX:X@XXX%XXX@X:X@XXX:X:X:X:X:X:X:X",
":X:X:XXX X|.|.XXXXXX&XXX#X@X@X@X@X@X@X#X:X&X&X;X>X2X1X:X:X:X&X&X:X:X:XXX>X&X%X*X&X:X;XXXXX@X>X@X@X@XXX1X:X|.|.OX@X:X,X@X:X:X:X:X"
};
