/* XPM */
static char *e030df626b4b4604bf3dc58942bc12df32Ty6o0Uq0CQ6BzI[] = {
/* columns rows colors chars-per-pixel */
"64 64 233 2 ",
"   c #1C130F",
".  c #0A0614",
"X  c #0E0D13",
"o  c #090816",
"O  c #100C10",
"+  c #130E14",
"@  c #190D18",
"#  c #141215",
"$  c #1C1314",
"%  c #151319",
"&  c #1A141A",
"*  c #1B1A1A",
"=  c #270C0C",
"-  c #320C0E",
";  c #240E11",
":  c #2B0E11",
">  c #330D12",
",  c #231613",
"<  c #371914",
"1  c #29281B",
"2  c #353018",
"3  c #180E22",
"4  c #1E1921",
"5  c #4B391A",
"6  c #523129",
"7  c #723F3A",
"8  c #2C6F27",
"9  c #4A5717",
"0  c #57701C",
"q  c #6A7C20",
"w  c #321B47",
"e  c #633C59",
"r  c #4F2F6B",
"t  c #4D3366",
"y  c #5D3879",
"u  c #67467F",
"i  c #CE2E33",
"p  c #DC3435",
"a  c #E93738",
"s  c #F83738",
"d  c #F43A3B",
"f  c #FC3B3B",
"g  c #FC423D",
"h  c #FD483F",
"j  c #FD3E41",
"k  c #98655A",
"l  c #CB4346",
"z  c #D44649",
"x  c #E14B4D",
"c  c #FD4341",
"v  c #FD4943",
"b  c #C26B4D",
"n  c #1A9137",
"m  c #1DAC2D",
"M  c #1CAC35",
"N  c #17AA38",
"B  c #15AB3D",
"V  c #1DAC3C",
"C  c #1BB139",
"Z  c #28AB2D",
"A  c #32AB2B",
"S  c #3BAE2C",
"D  c #2EB52C",
"F  c #3CB32D",
"G  c #24A634",
"H  c #29A637",
"J  c #23AC35",
"K  c #2BAD34",
"L  c #23AC3B",
"P  c #2AAC3B",
"I  c #33AD35",
"U  c #38AE38",
"Y  c #28B134",
"T  c #2AB23A",
"R  c #32B235",
"E  c #3CB333",
"W  c #38B43D",
"Q  c #75BA1F",
"!  c #7CBD1C",
"~  c #5B8E28",
"^  c #47AE2A",
"/  c #59AF2A",
"(  c #44B22E",
")  c #4BB628",
"_  c #4BB42D",
"`  c #57B627",
"'  c #53B32C",
"]  c #5BB52B",
"[  c #5CBA2B",
"{  c #42AD36",
"}  c #44B332",
"|  c #4CB432",
" . c #43B43B",
".. c #4AB43B",
"X. c #54B432",
"o. c #5DB531",
"O. c #59B937",
"+. c #63B523",
"@. c #6CB624",
"#. c #64B925",
"$. c #6DBD25",
"%. c #63B52B",
"&. c #6AB62A",
"*. c #62BB2B",
"=. c #6CBB2C",
"-. c #76B625",
";. c #73BB25",
":. c #7BBD24",
">. c #72BC2A",
",. c #7CBE2A",
"<. c #65B736",
"1. c #6BBB35",
"2. c #7BC11B",
"3. c #69C128",
"4. c #74C124",
"5. c #7BC225",
"6. c #74C22D",
"7. c #79C229",
"8. c #78C336",
"9. c #259640",
"0. c #12AC44",
"q. c #1DAB42",
"w. c #19B042",
"e. c #23AC42",
"r. c #2CAC48",
"t. c #36AE47",
"y. c #25B043",
"u. c #27B247",
"i. c #32B345",
"p. c #48B742",
"a. c #53BB43",
"s. c #8DBD15",
"d. c #83BD1C",
"f. c #8CBE1D",
"g. c #95BE14",
"h. c #98BF16",
"j. c #93BD1C",
"k. c #9ABD1D",
"l. c #A3BF1F",
"z. c #87B727",
"x. c #84BE24",
"c. c #8CBE22",
"v. c #8BBC2A",
"b. c #93BE22",
"n. c #99BE23",
"m. c #94BF29",
"M. c #99BE2A",
"N. c #8DBD31",
"B. c #F9893D",
"V. c #FB923A",
"C. c #FBBC26",
"Z. c #FEB637",
"A. c #96C00F",
"S. c #8CC316",
"D. c #85C31D",
"F. c #8CC719",
"G. c #8DC31D",
"H. c #92C315",
"J. c #97C618",
"K. c #92C31D",
"L. c #9AC31C",
"P. c #A4C419",
"I. c #85C323",
"U. c #8DC322",
"Y. c #8AC927",
"T. c #8CC824",
"R. c #84C42B",
"E. c #8CC42A",
"W. c #92C322",
"Q. c #9AC324",
"!. c #92C923",
"~. c #9BC925",
"^. c #95C52B",
"/. c #9AC62C",
"(. c #95C82C",
"). c #99C82D",
"_. c #8CC835",
"`. c #95C532",
"'. c #9BC632",
"]. c #93C933",
"[. c #98C834",
"{. c #A1C527",
"}. c #FBC927",
"|. c #FEC42C",
" X c #FECC2B",
".X c #FED325",
"XX c #FED22B",
"oX c #FBC735",
"OX c #FDD733",
"+X c #AA8D63",
"@X c #FE9443",
"#X c #F68559",
"$X c #D69673",
"%X c #ED8C6D",
"&X c #FA9E76",
"*X c #FA9E7B",
"=X c #D4A372",
"-X c #F4A37D",
";X c #FBA57C",
":X c #FCA97D",
">X c #F4D14E",
",X c #F3D46C",
"<X c #5D3683",
"1X c #643787",
"2X c #7A3E9B",
"3X c #7D3FA0",
"4X c #6F4D8A",
"5X c #7A4594",
"6X c #86529C",
"7X c #8F6291",
"8X c #8342A2",
"9X c #8C44A6",
"0X c #8E49A8",
"qX c #9349A5",
"wX c #9247A9",
"eX c #944BAC",
"rX c #9C4CAC",
"tX c #8B54A5",
"yX c #9254A6",
"uX c #9B4CB1",
"iX c #A24EAD",
"pX c #A14EB2",
"aX c #A251B3",
"sX c #FC9E80",
"dX c #FCAB83",
"fX c #F0AF8F",
"gX c #FAAB88",
"hX c #FBB78B",
"jX c #FCB58C",
"kX c #F9B996",
"lX c #E6B3A2",
"zX c #F5BDA1",
"xX c #F7C1A4",
/* pixels */
"K T J #.I.K.K.W.E.U.L.W.I.c.D.f.S.S.D.G.b.j.f.D.c.b.).(.^.^.^./.)./.^.c.c.b.Q./.!.W.U.U.H.g.b.W.R.} M A K ] !.S.U.K.K.k.k.K.K.S.",
"M L M #.U.K.K.W.E.U.K.K.G.W.I.j.j.f.U.f.U.m.f.c.b.b.(./.(.(.^././.^.W.c.c.W./.).^.W.W.L.K.U.W.F.x.{ B N V ] L.g.W.W.I.T.K.G.K.U.",
") ' ' X.` #.` :.I.j.n.j.G.G.G.U.G.c.U.c.c.b.m.b.j.W.(./.].]./.(.W.b.c.S.,.O.1.*.1.Q.I.H.K.U.W.U.x.&./ _ ' >.E.W.K.K.K.U.W.U.W.U.",
"D.D.f.X.K J V o.I.K.K.f.f.G.G.U.U.c.c.D.G.I.U.f.f.I.E./.).`./.(.W.b.x.L.1.t.W T  .c.U.W.W.K.G.U.T.I.I.G.G.G.K.U.T.T.T.W.W.W.W.W.",
"n.Q.Q.| V P q.] S.Y._.W.b.c.U.G.c.c.W.Q.~.!.U.U.U.W.b./.~././.(.^.(.^.L.1.t.t.y.U c.K.E.U.c.K.W.K.G.G.K.K.L.K.K.U.U.U.W.G.K.W.W.",
"U.U.T._ C V B ] n.(.)./.Q.W.c.f.W.Q.^.`.].`.^././.{.l.E.^././.^.^./.^.~.8.r.e.q.I x.K.I.D.G.W.K.K.G.G.U.U.W.W.Q.L.K.K.W.K.K.W.W.",
"S.H.H.+.( ( E @.m.(././.^.W.U.U.Q./.).(.].'.^.'.8.1.6.<.,./.).].).).^.^.8.| _ ( ' I.W.G.S.S.G.K.j.W.W.W.W.K.K.K.K.G.K.W.G.G.W.W.",
"b.n.n.d.f.U.x.K.E.E.(././.^.^.^.(.)./.{.!.{.~.].p.i.W U &.W.^.`.)././.^.].x.f.c.x.K.f.U.G.G.K.K.K.K.W.G.G.G.G.G.G.W.W.U.W.U.W.W.",
"c.U.U.W.Q.D.x.U.E.^.K.^./.(.(.(.(./.^.^.R.M.Q.`...i.W y.1.c.f.b.b.f.E.M.^.D.f.b.U.G.b.W.W.W.W.W.K.G.G.^.W.!.!.U.U.G.G.W.W.W.W.W.",
"h.K.S.D.M.H.G.H.f.N.Q././.(.(.(.(.(.^.n.x.j.s.m. .r.i.u.1.L.j.M.n.f.E.j.c.S.G.^.U.D.G.K.Q.W.U.U.W.U.U.K.K.K.K.K.K.K.K.W.W.W.W.W.",
"U.W.K.S.W.I.G.K.U.I.j.W.7.R.R.R.(.^.v.f.s.b.f.7.X. .t.p.1.2.d.-.x.L.f.f.U.G.G.W.U.G.U.U.W.K.K.K.W.W.U.K.W.I.:.:.x.c.!.H.D.K.U.G.",
"U.E.U.K.b.c.j.j.c.c.k.-.W i.i.p.`./.L.x.f.c.s.S.d.I._.8.a.i.H K ` j.I.U.U.G.G.U.U.W.W.U.W.K.K.W.W.U.U.E.W.+.K y.P ` H.E.E.Q.K.H.",
"K.K.j.G.W.W.G.j.c.I.L.@.P e.y...^.).^.W.b.j.s.s.s.~.).).a.P H N _ k.F.G.G.G.U.U.U.W.W.W.K.W.W.W.W.U.U.K.K.) G T L | G.D.G.H.K.S.",
"K.K.S.D.U.U.U.f.f.D.K.+.L L e. .E.]./.^.^.c.c.x.x.E.+ # X # X # _ k.S.G.G.U.U.U.W.W.K.W.K.K.W.W.U.U.U.K.W.| M J L | !.~.K.K.!.D.",
"U.U.U.I.b.b.f.b.j.f.n.>.I G H ..^.).Q.(.z.# -.* W.# OXOXOXOXOXOX# K.c.K.U.U.U.G.K.W.K.W.W.W.W.W.U.G.K.K.U.[ Z J T _ 2.c.c.x.^.U.",
"S A I $.c.j.U.W.Q.W.^.^.>.-.Q :.^.`.`.~.c.O +X,X$ >X.X.X.XXXOX.X>X1 * U.U.U.U.K.K.W.K.W.W.W.U.U.K.W.K.K.U.,.$.4.7.*.S R E ) I.S.",
"G H H #.I.W.E.^.(.!.].(.)./.n.x.I.Q.`.`.z., ,XoX>XXXXXXXXX.X.X.XXX>X>X, U.W.W.K.W.K.W.W.U.U.U.U.W.K.K.U.W.!.!.K.W.&.H P H ( b.K.",
"V L G #.c.!.^.`./.^.`.Q./.]./.W.x.g.E.'.z.$ +XXX X X X.X X X.X}..X X X5 z.W.W.W.W.K.W.U.U.U.U.U.W.K.W.Y.j.h.S.G.T.O.V Y L E G.K.",
"q.B G @.E.(.^.)././.(./././.(.^./.b.c.!.Q.[.5 ,X}. X XoXoX XXX X X X XZ.< $ K.W.k.U.K.F.K.W.W.K.G.K.K.K.G.G.G.G.R.] A 0.K ) I.K.",
"@.#.+.x.^.(.^.^.Q.^.W.^.(.).).^.).c.b.z.` p.~   oXC.|.@X@X X X X}.}.|.Z.Z.=X# U.x.| ( F X.,.G.K.K.W.U.K.U.U.K.K.E.7.#.*.$.Q T.U.",
"g.K.U.^.(.)./.W.c.c.c.U.^.(.).^.).W.W.z.E y.9.# $ B.B.& & # # &  XoXoXZ.Z.=X# K.:.K V M P :.G.W.K.W.U.G.U.E.K.K.L.!.T.K.K.G.G.G.",
"f.f.x.^.^.^./.b.f.c.f.c.U.^.(.^.).^.W.v.K G n $ #X# # hXhXhXjXjX# |.|.Z.V.$X% H.5.H V M L I.F.E.K.W.W.W.U.U.W.K.K.L.W.G.W.W.b.Q.",
"U.f.j.^.^.^.).W.f.f.f.c.c.c.^.^.).^.W.N.K m n O #X# jX$ kXjX$ & #XV.V.V.B.$X& S.,.L L L L x.G.T.K.W.K.K.W.U.!.W.K.K.W.I.U.Q.Q.!.",
"f.f.b.^.(.(.).^.c.c.f.c.f.c.^.^.(.).W.c.` ` o.' # # kXhX# jXhXhXhX@X@X= % & E.G.U.] %.*.o.G.G.E.G.K.K.K.W.W.W.U.U.U.!.W.K.S.S.K.",
"d.d.I.E.(.(.(.(.W.c.c.f.c.c.(.^.(.).W.G.U.{.U.{.S # kX& kXjX; $ gX$ # lX: & G.G.J.U.P.J.W.L.G.U.G.K.K.G.W.K.G.U.I.U.!.W.U.G.G.K.",
"I.b.j.c.(.(.(.'.^.b.c.f.c.c.).^.^.).W.b.W.I.f.h.{ # hX-Xb kXkXkXdXgXgXfX: * k.T.K.I.G.D.T.U.G.L.Q.W.E.U.W.K.K.W.W.G.K.G.W.U.U.U.",
"!.W.f.n.Q.!.'.~./.(.T.W.^.(./././.^.U.D.H.U.I.f.^ # hXhXkXjXjXzXkXdX:X= D.H.L.G.E.U.K.W.K.K.U.U.W.W.U.I.Q.m.W.K.W.E.!.K.~.W.G.S.",
").(.^.&.%.=.8.I.E.`.'.^.(./././.^.W.U.K.k.W.f.g.+.# hXkXxXzXzX= + ;XdX= j.j.Q.f.U.W.~.K.K.K.U.U.W.W.G.G.K.K.S.S.S.! #.&.&.>.T.S.",
"(.^.'.X.H M q.<.`.'.{./.).)./.^.W.U.U.x.R.I.; ; ; ; zXlX# ; ; %X# ;X%X- : - > > - K.L.W.W.W.W.W.W.W.W.W.^.W.U.U.W.&.K N L _ G.G.",
"(.^./.O.e.H V <.(._.(././.^.^.W.U.G.G.# 4 - v v v v , kX; %X#X#X$ fX; z a a d s f # $ W.W.W.W.W.U.W.K.K.U.K.G.U.~.[ B Z H } U.I.",
").).!.O.r.e.B o.T.Y.L.!.Q.W.U.U.G.G.& gX< - h h h v h $ fXjXjXgXjX# a f f f f d d # &X$ W.W.W.W.U.G.K.K.U.K.S.U.L.] B J H ( W.(.",
"^./.~.1.p.W T %.f.b.g.K.b.f.f.U.U.% gXgX< > g g g c g g ; # # + # i d f f f f s d # *X*X# K.K.W.G.U.W.W.^.W.U.U.b.=.W R E _ =.6.",
"c.W./.T.!.{./.L.s.x.v.f.f.f.U.G.# gXdXgX< # # % # g g c g j g g f f f f f j p p 6 # *X*XsXO W.W.W.W.G.G.K.K.G.G.K.D.5.L.U.*.P N ",
"c.b.^.`.^.^.'.!.Y.c.c.f.f.U.U.G.6 dX%X% Q.G.T.S.& c g g f f j f f f f f j c p # E.G.& ;X;X$ W.W.W.W.U.G.W.b.U.K.K.L.~.U.!.$.J J ",
"c.c.c.^.'.Q./.(.^.I.S.G.U.U.c.# :X:XlXf.K.U.^.j.& c f f f f f f f f f f a l $ ^.L.U.j.+ *X-X$ c.G.^.Q.G.W.K.G.I.K.G.U.K.H.=.L C ",
"f.f.c.!.).).)./.m.m.b.j.G.W.% :X;XkX# U.U.D.!.K.& f f f f f f f f f f f a l & I.d.T.Y.% *X*X+X5 2 x.x.I.I.T.W.f.K.K.W._.R.=.K A ",
"c.c.W.W.!.(.].E.f.W.I.f.K.9 fX:X:X# G.W.U.G.!.T.& g f f f f f f f f f f a l # T E S.H.% %XsX&X> $ | L K K %.L.K.W.W.U.L.J.K.I.T.",
"Q.^.^.).'.[.^.!.s.S.S.S.K.# :X;X:X# S.L.K.H.K.F.& j f f f f f f f f f f a l # J P j.c.9 7 k k q 9 ( B K J ] Q.K.U.U.U.U.I.c.U.W.",
"/././.~.Q.n.j.Q.j.j.W.U.U.+ dX:X#X# K.W.Q.b.U.U.& f f f f f f f f f f f a l % V P K.W.Q.% # # v.W.} B J V [ ~.K.U.U.G.K.E.W.W.D.",
"/./.(._._.E.U.E.c.f.D.x.T.f.# % # U.K.I.E.E.Q.P.& f f f f f f f f f f f d a l V E D.K.U.D.L.U.U.D.} L M Y [ W.L.Q.Q.U.s.G.^.!.T.",
"/./.^.!.K.g.D.#.S R Y +.R.G.K.W.I.U.K.H.H.T.T.S.% f f f f f f f f f f f s x % , ! T.Y.W.!.c.U.c.K.x.! 2.:.D.W.c.W.K.L.K.K.c.G.s.",
"(.^.^.E.f.h.E.' G V B ^ R.W.K.L.U.W.K.m.k.E.!.g.+ f f s f f f f f f s s f d i   L.W.W.S.W.K.K.G.F.E.U.W.Q.Q.K.U.W.G.I.U.K.E.G.g.",
"c.c.c.f.I.K.Q.` Z J L  .K.S.T.Q.D.W.W.U.j.m.Q.H.# , f f f f f f f s f s f x & $ W.W.W.m.L.b.S.K.U.D.U.T.W.K.S.U.E.L.h.S.W.Q.I.U.",
"c.c.c.L.I.G.c.' Z J V | f.K.~.m.W.W.U.H.H.G.D.# % 7X+ + @ + + @ @ @ @ @ + @ 3 $ W.W.U.G.G.W.K.K.Q.K.L.j.K.W.j.U.T.T.U.G.G.Q.D.W.",
"c.c.c.b.I.K.b.7.*.=.=.[ ) | } ] S.G.D.b.K.W.K.X 3 iXyXyXtXtXyXyXtXtXtX6X5X5Xy $ W.W.U.W.I.W.U.G.L.W.L.H.D.T.W.k.K.U.U.W.W.Q.G.!.",
"U.f.U.U.U.K.L.K.K.J.P.=.J q.0.U S.K.Q.m.Y.U.n.X rXpXiXiXiXiXrXrXqXwXwXwXwX9X1X3 q K.K.^.v.L.T.D.K.T.K.J.D.I.W.L.K.K.n.T.G.~.K.K.",
"U.U.G.W.K.K.f.D.U.K.K.=.M P M R I.E.W.L.W.G.% pXpXuXpXpXpXrXrXeXeXqXwX9X9X9X0X3 ~ K.K.W.U.L.~.K.J.U.G.Q.K.G.K.S.G.K.K.F.G.G.K.K.",
"U.U.U.K.K.K.I.T.E.^.E.$.K J m E D.T.W.h.K.K.+ rXuXuXpXaXr t t t t tXwX9X9X9X9X9X@ 2 G.G.W.D.^.^.U.W.K.U.K.K.G.S.G.!.U.!.U.T.W.U.",
"U.U.U.U.K.W.E.S.L.n.K.D.] X.' =.K.Q.L.G.L.# aXuXuXuXuX1Xy X X X X 6X8X9X9X9X9X9X@ 2 U.H.E.[ X.O.] x.!.D.U.W.G.K.W.,.` O.] $.!.D.",
"G.U.W.U.f.W.E.S.L.Q.U.G.U.!.L.Q.L.U.D.U.j.# rXeXuXeXuXX X + S.G.+ X 6X9X9X9X8X8X9X4X# k.U.K M N Z ;.T.S.b.m.U.L.U.` m 0.G ) E.K.",
"W.G.G.G.U.^.^.G.S.G.U.K.K.U.U.W.W.K.G.W.f.+ eXeXwXeXeXX 0 U.L.S.W.@ u 5X8X8X8X8X8X4X+ D.H.P w.J J 4.K.W.U.I.D.L.K.%.L L H F ^.H.",
"W.G.G.Q.K.K.S.S.W.W.K.G.W.W.W.U.G.G.K.U.U.X wXwXeX0X1X+ I.E.W.K.W.b.$ u 8X8X8X8X2X2Xy # D.I V G K >.!.U.D.k.n.c.G.*.q.V H E E.S.",
"U.G.G.;.[ =.#.4.U.T.W.G.S.L.~.U.T.U.Q.G.G.X 0X0XeX0X<XX K.U.W.H.4.[ 3.1 w 2X2X2X3X2Xy X x.] _ | ' :.U.T.D.L.W.T.G.Q _ ) ' #.U.G.",
"G.G.G.| M V Z ] M.W.T.W.K.K.L.U.U.W.W.0 * e . . . . . X L.W.!.K.*.L J M 8 . o o o o o . * K.K.T.D.K.~.W.L.U.T.!.L.U.W.K.b.W.L.K.",
"W.K.K.' M V M X.v.G.S.Q.W.G.S.L.Q.L.G.K.U.E.U.U.j.K.L.I.K.G.U.Q.*.M G L  .Q.U.H.n.!.Q.U.R.K.K.T.U.G.Y.W.L.G.D.L.b.U.!.T.U.G.G.S.",
"W.K.K.X.P e.L X.I.K.H.K.K.F.S.Q.M.m.E.K.S.!.!.H.H.U.Y.T.K.S.S.K.*.L L G } G.U.S.R.T.G.K.G.K.K.I.K.H.K.U.G.J.Q.Q.K.K.S.E.E.W.U.E.",
"W.K.K.<.E I S ' ;.7.4.:.T.G.S.W.^.c.!.W.Q >.>.;.I.E.U.E.^.!.K.Q.=.S U { | 4.6.2.>.F.K.W.U.U.K.U.U.K.G.c.K.x.>.1.6.I.L.I.G.j.W.W.",
"W.G.G.I.D.G.U.] I P L ] R.E.f.K.G.F.H.7.( P L K 3.G.A.L.Q.U.S.L.T.2.I.K.[ K e.A { D.W.U.W.U.L.L.U.K.T.G.U.] K J P X.W.E.G.K.K.W.",
"U.U.W.L.W.G.L.o.M J q.} S.W.U.K.j.K.W.f.T G e.N ;.Q.W.K.K.W.W.K.G.G.T.L.;.N L L A D.b.j.!.f.U.W.G.W.K.G.G.X.V V J ' ^.U.U.W.K.W.",
"W.U.W.G.U.D.K.o.m K L ( S.Q.Y.K.n.K.U.f.R G e.V 4.Q.K.G.G.W.W.W.K.G.G.L.;.J V H S I.Q.K.W.G.W.W.G.W.K.L.Q.X.L M Z ' U.U.U.W.W.K.",
"W.W.G.L.!.G.W.1.R U i.' S.W.U.~.W.K.U.x.E A R D 4.n.Q.G.G.W.W.W.W.K.G.K.:.U R I ( D.W.W.G.W.W.G.U.W.W.Q.c.o.I K E [ U.U.U.W.U.W.",
"U.W.G.T.U.S.L.U.4.D.d.7.K.K.W.L.G.G.W.L.6.:.x.! H.k.U.G.G.K.W.W.W.W.K.G.E.4.5.x.:.K.U.W.G.W.W.G.U.W.G.K.J.I.7.:.4.I.L.W.W.W.W.U.",
"W.W.G.W.W.K.L.Q.U.W.W.I.J.K.K.L.G.S.K.K.T.K.K.K.K.G.I.G.W.K.W.W.W.W.K.S.Q.K.J.L.K.K.I.W.G.W.W.G.W.K.G.I.G.K.W.K.G.W.W.W.W.W.W.W.",
"W.W.W.G.D.S.S.G.D.G.U.D.L.K.K.K.K.K.K.L.W.U.U.E.Q.Q.^.W.W.W.U.U.W.W.W.G.Q.U.T.Y.U.W.E.G.G.K.~.K.K.K.G.^.W.S.S.H.K.W.!.K.W.W.W.W."
};

