/* XPM */
static char *d6c56e5164a84896e1772eb1deb278b82W7cE1I0s6FkPLGb[] = {
/* columns rows colors chars-per-pixel */
"64 64 256 2 ",
"   c #1C0C0B",
".  c #150908",
"X  c #021501",
"o  c #031A00",
"O  c #0A1E03",
"+  c #1E130B",
"@  c #1F1211",
"#  c #020C01",
"$  c #26130D",
"%  c #29140E",
"&  c #241E0E",
"*  c #290D12",
"=  c #261311",
"-  c #2C1512",
";  c #2D1A13",
":  c #291715",
">  c #311514",
",  c #331A15",
"<  c #3B1C16",
"1  c #381718",
"2  c #260D0F",
"3  c #0B2301",
"4  c #193902",
"5  c #132E04",
"6  c #2C280C",
"7  c #283808",
"8  c #3E211B",
"9  c #382915",
"0  c #3C3616",
"q  c #2F2B10",
"w  c #441A1C",
"e  c #48251C",
"r  c #423B17",
"t  c #53311B",
"y  c #5B2C23",
"u  c #582923",
"i  c #573323",
"p  c #652C29",
"a  c #6D342B",
"s  c #6F3A2C",
"d  c #673528",
"f  c #72362D",
"g  c #73392D",
"h  c #7A3B2D",
"j  c #713A27",
"k  c #733431",
"l  c #743A30",
"z  c #7B3C31",
"x  c #7C3838",
"c  c #712D30",
"v  c #1D4301",
"b  c #184302",
"n  c #224401",
"m  c #254B01",
"M  c #294E02",
"N  c #294208",
"B  c #2A5401",
"V  c #285302",
"C  c #38490E",
"Z  c #016D01",
"A  c #037301",
"S  c #017B01",
"D  c #0E7501",
"F  c #147603",
"G  c #396505",
"H  c #3E7601",
"J  c #464618",
"K  c #4B5819",
"L  c #575B19",
"P  c #534716",
"I  c #65501D",
"U  c #497907",
"Y  c #546B1B",
"T  c #55671B",
"R  c #5B751D",
"E  c #5C7C1D",
"W  c #56741C",
"Q  c #4A720D",
"!  c #617B1E",
"~  c #62741D",
"^  c #717117",
"/  c #5D5221",
"(  c #694926",
")  c #78492A",
"_  c #7C5C2A",
"`  c #77572A",
"'  c #7D5832",
"]  c #754A2F",
"[  c #5C7B21",
"{  c #5C7620",
"}  c #566F21",
"|  c #646D22",
" . c #6B6C24",
".. c #6C6627",
"X. c #73622A",
"o. c #7B6229",
"O. c #746726",
"+. c #647322",
"@. c #627D21",
"#. c #6A7425",
"$. c #737327",
"%. c #883E33",
"&. c #863A31",
"*. c #86422E",
"=. c #83582D",
"-. c #854231",
";. c #8A4433",
":. c #8D443C",
">. c #8A4B37",
",. c #954634",
"<. c #994534",
"1. c #944A34",
"2. c #9A4B35",
"3. c #94453C",
"4. c #9B4539",
"5. c #984C3A",
"6. c #895433",
"7. c #9E513A",
"8. c #9B5336",
"9. c #90452E",
"0. c #A14F3A",
"q. c #A24A38",
"w. c #A2513A",
"e. c #AB533C",
"r. c #A35236",
"t. c #B45B3B",
"y. c #816929",
"u. c #8D6E2F",
"i. c #923C41",
"p. c #974842",
"a. c #975142",
"s. c #A85745",
"d. c #B55E4D",
"f. c #B26652",
"g. c #9E7D47",
"h. c #C07556",
"j. c #038402",
"k. c #018B01",
"l. c #079401",
"z. c #189304",
"x. c #268605",
"c. c #2C9206",
"v. c #2EA706",
"b. c #52840B",
"n. c #568A0D",
"m. c #5D831D",
"M. c #5E8B1E",
"N. c #568A1B",
"B. c #4B8E0C",
"V. c #6E8D05",
"C. c #6E8D09",
"Z. c #718D08",
"A. c #6F9105",
"S. c #669B06",
"D. c #719206",
"F. c #719209",
"G. c #759B0A",
"H. c #789A09",
"J. c #62841E",
"K. c #638A1E",
"L. c #6A871A",
"P. c #758815",
"I. c #67941B",
"U. c #779818",
"Y. c #52AA0D",
"T. c #68A708",
"R. c #73AE09",
"E. c #7AA80C",
"W. c #76B10A",
"Q. c #7CB50C",
"!. c #7EBB0B",
"~. c #7DB907",
"^. c #7BA815",
"/. c #6FB313",
"(. c #5F8420",
"). c #5F9122",
"_. c #638422",
"`. c #648B21",
"'. c #6A8D23",
"]. c #698423",
"[. c #659121",
"{. c #6B9423",
"}. c #6D9924",
"|. c #729425",
" X c #739B24",
".X c #749D29",
"XX c #759929",
"oX c #7AA326",
"OX c #7BA42A",
"+X c #7CAB2A",
"@X c #76A326",
"#X c #76B829",
"$X c #6FC210",
"%X c #7DC324",
"&X c #88911A",
"*X c #83A60D",
"=X c #82B60C",
"-X c #83BA0D",
";X c #89BC0E",
":X c #8CB20D",
">X c #87A916",
",X c #84BB12",
"<X c #8BBD12",
"1X c #89B817",
"2X c #92B514",
"3X c #94BB13",
"4X c #9ABD14",
"5X c #98BB19",
"6X c #93AA13",
"7X c #8E8F23",
"8X c #81AC2B",
"9X c #83AC27",
"0X c #85B32E",
"qX c #89B62D",
"wX c #8CBC2E",
"eX c #89B824",
"rX c #91BD2E",
"tX c #8DBD31",
"yX c #89B530",
"uX c #91BE31",
"iX c #91BF38",
"pX c #A3B919",
"aX c #88C10D",
"sX c #92C40E",
"dX c #8EC312",
"fX c #94C413",
"gX c #9AC414",
"hX c #97CA12",
"jX c #9BCB13",
"kX c #95C61C",
"lX c #99C71A",
"zX c #9DD213",
"xX c #A6C816",
"cX c #B2CC1D",
"vX c #A5D216",
"bX c #B9D41A",
"nX c #8BC42A",
"mX c #92C32E",
"MX c #95C726",
"NX c #8EC232",
"BX c #93C433",
"VX c #99C634",
"CX c #95C933",
"ZX c #9BCC34",
"AX c #9CCD38",
"SX c #95C438",
"DX c #9ED035",
"FX c #9FD139",
"GX c #9DD127",
"HX c #A5CA26",
"JX c #A1CE36",
"KX c #A3D436",
"LX c #A4D439",
"PX c #A7D938",
"IX c #AAD228",
"UX c #C5DB20",
/* pixels */
"n.n.b.b.n.U 5 X o X o 5 5 O X ; , , , , > , > , ; , , , , , , , , , , , , , , ; , , , ; = : - 7 B B B B B B B B B B B B 3 3 B G ",
"n.b.b.b.U b.U 3 o O o X X X X % - - - - - - - - - ; - - - - ; ; - - - - - - ; - ; - - - , , , M B B B V V B V B V V V m 3 o 3 7 ",
"n.b.b.b.b.U b.G o o o O # O t y y y y y y y y y y y y u y y y y y y y y y y y y y y y e - ; 6 V V V M m V m M M M m V 4 X o t z ",
"b.U b.U U U U U 4 # X # 4 G.) g h h l g g g g g g g l l g h l l g g g h g h l g l l g g < > 6 V m m m m m M m m m m n 3 X 9 e.e.",
"b.U U U U U U U G 3 4 U aXQ.s a c p a j g ] f g f f s s g k s g g g s f g g f g g a f l e - 7 m m m m m m n m m n M 5 X 6 7.7.7.",
"..U U U U U U U Q P.jXW.R.=Xg ) u.u.) p >.f.] f j g g g f g g f g g g f g g a a.f.g s l e - 7 v v v n v n n n n n 5 X 9 w.w.w.0.",
"4.I G b.U U Q Q G P.vX-XT.E.&X4XxXcXcXu.x f.z a g g g f f f g g l f g g f l a f.f.] j z e - 6 v n v v n v n n b 4 6 j e.w.w.w.w.",
"2.f = C Q U H H G ^ zXfXQ.Q.2X:X:X:X2XvX7Xk g g g g j g g f g g f f g g g g a a.d.j f g e - 8 N b n 7 n n v b P 2.e.e.0.7.w.w.w.",
"2.j = > ; t L L d y.zXfXQ.H.Z.D.Z.D.D.H.3X7Xf a l f f f f f g g l g j g g g k s g f g ] e $ w d n 4 4 b b N ( e.e.w.7.w.w.w.w.0.",
"2.j $ ; : y x f c y.zXfXQ.F.V.D.A.Z.Z.V.A.H.] a.z f g g f j g a g f g f g g f g j f g z e - 8 %.1.P J P ( 7.e.7.7.2.w.w.w.0.7.w.",
"2.j % > - y g g a o.jXfX-XE.D.D.F.A.G.F.^ s g :.g g f g g f g h g f g l f g g g g g g h e - < z w.e.w.e.e.w.7.0.w.w.w.7.7.w.w.w.",
"2.j = , - u g g f _ zXfX=X!.^ ^ Z.P.^ ) k f g a f g g f g f h 1.h s g f f g f g g k f z e $ < z w.7.w.7.7.w.w.w.w.0.w.e.e.7.7.0.",
"2.j $ , - u g s f ` dXgX-X!.o.%.) g k j g f g g f j g g g g h 9.g f g g f g f f g f f h e - 8 &.w.w.7.7.w.w.w.w.w.w.w.t.e.0.7.w.",
"2.a $ , : u l g f ) <XQ.=XaX$.f j f g s g f g g f g f j f f g h g g f g f g g g g f f l e $ 8 h w.7.w.w.w.w.w.7.w.w.w.e.w.7.0.w.",
"8.j - , - u l g j ) gX;XT.~.^ c j g l f f f f l f j g g f g g g l f f f f f g g f f f l e $ 8 h w.w.w.w.w.w.w.w.w.w.w.7.7.w.7.w.",
"$.T - , - u g g f l 2XjXW.T.P.f g j k g g g f f f g j f f l g f f f g g g f g f g f f g e = < z w.0.w.w.w.w.0.w.w.7.w.w.w.w.7.w.",
"O.M.K > ; y g s g g 2XjX<X!.P.k l f g j g k g k f j f g g g f g f f f g g g g f f f a g e = 8 -.7.7.7.7.w.w.w.w.w.w.w.w.w.w.w.w.",
"=.`.'.K * e g g l k 6XzX<X!.U.( [ s f g j f s g g g f f f j g ! ( f g k g g g g g g g h < - , d 2.w.7.7.7.7.7.7.7.w.7.7.w.7.7.7.",
"6.J.+X`.J 2 y z g k &XzX;X!.^.( M...f g l g h g g g g g g k g J.| k g h g g j g g f l d @ , - < d r.e.e.e.e.e.e.e.r.e.e.r.e.w.e.",
"% T 0XqXm.r   % %   ! vX;X!.E.J `._.9 2 % - - $ % = = = $ $ ; ! `.0 2 = % $ = - = $ %   $ , - -   $ - = $ - - % % % $ % $ - % $ ",
"  K }.DXoXE 9   + . T vXsX-XE.K |. XK   +       + &   + @   @ E }.T                     , > ; , $ . . . . . . . . . . . . . . . ",
"> r K.BXZX}.R 9 , * L aX-X-X=XY |.tX! 9 , , , > J _.9 - , , < R OX`.r ; , , , , , , L J * , , , > , 1 , , , , , , , , , , 1 , , ",
"- 9 _.0XDXBX'.K < * r jXR.T.-XK.|.ZX{.K - ; ; - J '.L - ; - ; Y qXOXT > > - ; - , - T `.r - , ; ; ; , - - > - ; ; - ; > - - , > ",
", , Y 8XCXZXHXxX5X*XP.gXgXT.R.I.|.LX8XR 9 , ; - J '.`.r > ; , Y 8XmX_.r - , , , , - 0 _._.0 > , , , , , , , , - J J > , , , ; , ",
"u u L  XBXbXbX5X3XgXgX3XjX;XQ.I..XDXBX'.J - , - J |.oXR *.*.-.| oXKX|.| -.-.-.%.*.*.*.+.K.[ ) %.;.*.*.*.-.-.-.%.$._.-.-.*.;.u - ",
"p p / `.HXxX2X3X:XE.H.F.*X<X-XE.oXZXZX@XT - , > ( {.BXM.o.<.2.O.}.ZXwXm.=.<.1.1.<.2.<.X.{..X@.2.<.<.1.1.2.<.1.4.o.N.o.q.2.2.-., ",
"y y i |.xX2X2XH.F.V.A.V.F.<X!.E.8XZXZX0XJ.9 - 1 ` `.ZX8XR 6.<.X.{.ZXZX X+.1.1.1.1.1.1.6._.wX{. .1.1.1.1.1.1.1.,.o.K.! 8.r.1.1.< ",
"y y u 6X4X*XV.V.F.D.F.V.H.fXQ.Q.0XVXZXwX{.J - 1 ` K.BXCXK.O.4.o.[.BXKXwXm.' <.1.1.1.1.1.| +XSXm.o.4.1.1.1.1.1.,._ {.K.y.2.1.1.< ",
"d u ( 3XH.V.D.D.D.F.V.V.:XfXQ.Q.wXBXAXVXoXT - 1 ` `.wXFX+XE 1.6.K.tXZXZX X+.1.1.1.,.1.1.X.'.JX8XE 6.,.1.1.1.1.,._ {.oX| 1.,.1.< ",
"[ d ^ E.V.D.D.F.A.D.V.F.dXgX-XQ.eXBXKXBX0X[ 9 1 ` K.tXZXmX`.o.f.J.0XZXZXtXM._ <.1.1.1.,.6.m.rXZX{.#.1.1.1.1.1.1.=.[.wX! 6.4.1.< ",
"XX{ ^ ^ C.F.D.V.V.V.^.XX<XQ.Q.=X1XuXFXBXrX'.J 1 =.K.tXZXCX@X+.h.#.+XCXZXBX@X+.5.,.1.1.1.1.! 8XFXqXm._ 4.1.1.1.<.=.K.ZX[.X.,.1.< ",
"BX XR d T oXwX9XrXwXCX8X<XsXT.R.,XBXFXBXBX.XK 1 ' K.tXVXZXwXm.u.$.@XBXZXCXwXK._ ,.5.1.1.,. ..XZXZX X+.1.,.1.1.<._ `.ZX+X~ 1.1.< ",
"tXBX|.| L `.ZXHXIXlX*X9X1XjX<XT.Q.NXKXVXmX8X} < ` `.wXCXZXBX}.X.X.}.BXZXZXBX@X+.1.1.1.1.4.X.[.VXZXwXm._ 7.s.1.<.=.K.VXrXm.=.,.< ",
"tXNXmXK.L.HXcX4X6XD.V.qXMXjXgX-X=XwXFXCXBXyXE e ` `.tXVXZXBX+X .o.K.VXVXZXmX0X[ 6.,.1.1.<._ K.rXZXZX@X~ 7.s.,.<._ `.BXZX'.o.<.< ",
"FXuXCXqXcXxX2X*XD.V.A.wXMXjXgX!.Q.eXPXAXBXBXK.P ` '.BXVXAXmXqX@.o.K.BXBXFXBXNX`.=.,.1.1.2.8.J.qXZXZXtXJ.=.,.1.0.u.`.mXJX X .<.< ",
"PXCXiXHX4X2XE.F.Z.Z.F.tXmXhXjX-X=X1X#X%XeXNX{.L ` [.BXBXJXBXmX`. .K.uXBXLXBXBX}...1.1.1.2.r.! 8XCXZXBX X .1.9.d.g.M.BXZX+X@.1.< ",
"W.1X1X5X3X*XA.V.D.V.F.mXBXkXhX<X-Xz.k.l.v.$X}./ ` {.NXBXLXNXVX|.R J.tXBXLXBXBXOX .4.4.4.<.2.+.+XBXZXCX0Xm.6.1.s.u.I.VXZXwXm.=.< ",
"W.Q.Q.<X:XA.D.A.D.V.1XAXBXkXjXfXc.S j.j.k.k.v.Y ` {.BXNXLXBXBXOXE _.tXNXLXBXmXeXN.! R Y T :. . XVXZXZXBXI.O.,.,.X.{.BXZXBX[._ w ",
"fX<X,X-XG.V.V.Z.D.D.1XnXwXnX;X-XD Z Z A A S k.c. .{.mXNXDXVXBX0XE m.tXBXZXnX/.v.l.k.j.S K q.X.{.BXCXZXBXoX+.1.<.O.}.VXZXVX X..< ",
"jXjXfXgX:XE.H.G.S.T.W.~.Q.-XfXQ.x.Z A A A A A S x.`.BXNXKXVXBXtX_.E qXBX/.v.k.k.S Z Z A 6.q.o.{.BXVXFXBXyXE 6.4. .@XVXZXCXOXT - ",
">XjXjXjXhXjX<XR.W.<X;X-X=XQ.fXjXR.D Z A Z Z Z F x.I.mXwXLXAXBXBX_.R yX#Xl.k.j.A Z A A F &.&.` `.mXBXLXBXBX[.X.&.| OXBXAXCX8XR , ",
"[ @XMXMXGXfX-XjXzXjXhXfXgXfXgXjXfXW.c.F F x.Y.=XdX-XQ.-X,XQ.,X1X^.I.eXY.k.j.A A A A A v - $ 0 `.tXBXZXmXBXoXY q E 9XmXnX1X1X^.G.",
"].E XXNXPXDX9XL.L.1XfXjXgXjXjXjXfX-X-X,XdXsX*XG.E.Q.!.R.S.R.=XQ.!.!.;XT.S A A A A Z x.E.^.E.^.,XQ.W.,X,X=X,XQ.-X-X-XT.R.~.!.-XaX",
"|.`.E _.OXPXOXK * K |.MXGXkX1XgXjX<XQ.;XjX3XV.V.C.D.G.R.,XfX<X;X,X=X-XQ.D Z Z Z A x.W.-XQ.!.-XW.T.W.!.Q.Q.Q.Q.Q.!.T.T.E.G.H.G.E.",
"mXuX0X|.[ `.'.m.T K E .XKXCX`.>XjXfXQ.-X3X2XH.Z.D.A.V.F.3XjXhXjXjXlXhXgXT.B.Y.T.,XfXfXdX<XfXQ.T.,XfXdXfXfXdXdXfX!.R.fXD.Z.C.V.V.",
"BXBXCXZXZX.Xm.#.#.J.m.E 0XZX[ 7XjXfX=XQ.:X4X*XC.D.F.D.V.F.kXgXkXfXfXjX;XdXxXvXvXjXjXzXzXzXhXaXhXjXjXjXjXjXjXjXfX;XjX5X*XV.D.D.D.",
"PXPXLXPXZX.X@.>.>._ #.E ].8XE y.3XhX<X!.=X3X2XD.A.Z.A.A.Z.9XCX0X@.y.L.eXMXGXGXMXMX^.7X7X&XL.P.>X1XkXkXGXMXkXeXU.U.eX3X2XF.V.D.A.",
"BXBXBX8Xm.R +.+.@.! @.E E [ E E >X-XW.W.-X2X3X>XV.D.Z.F.V.^.CXOX+.:.+.+XBXZXLXtXVX).] i.p 2 * J .XBXNXLXVXBX0XE [ eX3X5X:XD.V.D.",
"tXOX].[ _.}.oX+XqXqX0XqX9XoX}._.U.jX!.T.T.3X3X3XH.C.D.A.V.^.CX}. .3...}.BXVXPXNXVX{.` 3.a $ ; K  XBXtXLXBXBXwXJ._.0XcX2X3X:XD.V.",
"@.m.|.0XBXVXBXCXBXBXBXBXCXZXLXZX}.fXvX<XR.<XbX3X2XG.V.F.V.>XBX`.` i.' J.tXBXPXBXBXI...3.d - > J |.BXtXKXBXBXtX_.E 0XHXbX5X2X2XG.",
"8XmXCXBXBXNXtXNXVXZXLXPXLXPXZX}.| 7XjXgX=X!.1XcXxX2XH.C.V.eXtXE >.:.>.{ +XBXKXVXVX{.X.p.d - - r K.uXBXLXZXNXBX'.E 0XBXHXUXxX4X5X",
"BXBXrXBXVXZXKXPXLXKXZXZXCXyX'.~ >.8.hXgX;X-X^._.>X5X4XH.V.mXoX+.:.:.:.X.I.NXFXZXBX{.` p.d % - 0 `.tXNXFXZXtXBX'.E 0XNXCXKXHXIXxX",
"ZXZXLXLXKXKXZXBXmXBXBXtXOXm.#.6.' ` >XjXdX=X-XK.} m.U.>XH.eXK.' %.>.3.>.[ 8XZXKXmX{.X.p.d % > 9 (.tXmXZXZXtXBX{.E 0XBXZXLXtXBXoX",
"ZXZXBXBXBXNXBXBXVXwX.XJ.[ E +.E M.`.^.jXgX;X-XQ.OX.X_.E _.'.(. .6.:.:.:...'.BXKXBXI.X.p.d - , 8 R 0XBXZXLXNXBX|.E +XVXVXKXuXBX@X",
"VXVXBXBXBXBXwXOX'.E R _.{. X+XqXrXBXBX<XQ.Q.R.-XDXyX_. .! m.K.).J.$.' :.>.E qXPXqXE ' 3.d $ , , T +XBXZXKXwXBX|.E 8XBXVXKXuXBX+X",
"+XOXoX.X{._.E R _.|.8XtXVXCXBXBXBXBXVXJXjX=XT.T.E.[ _ 3.6. .m.J.`.M.(.#.' | XXPX@X+.:.3.d - , - K oXBXZXKXtXBX'.R OXBXVXPXNXCX8X",
"#.! E R E _.XX0XwXmXVXBXNXtXBXBXnX%XY.v.Y.jXfXW.!.y.i.:.%.:.=.#.m.J.`.M.m.@.E uXoX| :.3.d - , - K  XBXZXPXtXBX`.E oXBXBXLXBXVX8X",
"$.[ K.XX8XtXCXCXNXuXtXBXZXKXPXnX$Xz.k.k.k.c.dX;X!.>X' X.| +.+.@.(.[ E E @.(.E _.{.X.i.p.d = , - r {.tXCXLXBXtX_.R XXBXBXLXBXBX8X",
" X8XBXBXBXBXNXBXVXJXPXPXLXZXnX/.l.k.l.j.S A A T.-X!.U.}.@X+X0X0XqXqXBXrX{.E `._.E +.' 3.a $ , > r _.tXCXLXBXwX@.T }.BXBXPXBXBX8X",
"CXBXBXVXZXFXLXKXKXZXVXNXuXVX/.z.k.k.S A A A Z B.fXQ.-XmXBXBXBXFXLXPXVXI.+.+.m.M.).m.m.$.i = - 1 9 R 0XZXKXBX0XR / '.uXBXLXBXBX8X",
"ZXJXZXZXZXCXBXBXuXNXBXVXVXwXv.k.j.A Z A A A Z Y.vXQ.~.,XZXKXPXKXZX8XM.$.>.5.o.].K.`.).).m.T 9 - - K @XBXLXBX+XR ( ).tXBXLXBXmX+X",
"CXCXBXBXBXmXBXBXtXwX0XoX|.N.l.S Z A A A A A Z /.hX<XQ.Q.MXZXCX0X`.W C 1 1 1 w 9 K J.`.M.[.`.! K , J {.VXKXBX@XK % E qXNXPXVXBX+X",
"0X0X0X8X+XoX.X X{._.R [ ~ B.j.A A A A A A Z x.GX;XQ.T.T.R.eX.X@.>XpX6XU.^ P 6 2 2 0 Y `.`.I.M.`.R K _.wXKXuX}.0 . Y 8XBXKXZXBX+X",
"E { R Y Y T K J 0 J T R |.c.Z Z Z Z Z Z Z A nXJXkXjXfXQ.Q.Q.L.2XxXgX3X2X:X*XJ > , * > r R _.[.I.`.J.E 8XPX0X(.9 * K |.BXLXZXBXOX"
};
